<svg xmlns="http://www.w3.org/2000/svg" width="231" height="155" viewBox="0 0 231 155" fill="none">
  <path d="M195.791 140.968C225.326 114.811 226.837 74.7015 173.523 29.7206C165.791 23.1813 162.012 14.0739 154.337 9.17608C131.081 -5.67636 98.4361 -2.65821 77.8837 19.3954C66.6337 31.468 62.0988 48.0413 50.4128 59.8756C37.3023 73.166 21.6047 86.0858 15.6453 104.195C11.6919 116.188 12.3605 129.266 16.8663 140.995C81.6337 151.479 142.855 154.709 195.791 140.968Z" fill="#CCE9FF"/>
  <path d="M172.244 115.685C172.244 115.685 168.407 137.024 182.826 142.027C197.244 147.031 193.61 136.653 193.61 136.653C193.61 136.653 199.163 134.906 182.913 127.704C175.267 124.316 172.244 115.685 172.244 115.685Z" fill="#2A94F4"/>
  <path d="M190.965 143.377C190.965 143.377 211.314 143.51 215.762 118.623C220.18 93.737 230.5 89.0245 230.5 89.0245C230.5 89.0245 186.256 93.737 190.965 143.377Z" fill="#0E538C"/>
  <path d="M190.355 142.716C195.093 149.123 206.924 129.558 203.145 116.929C199.366 104.274 191.953 96.6757 191.866 87.7272C191.866 87.7007 167.012 111.21 190.355 142.716Z" fill="#BEC0F4"/>
  <path d="M0.5 121.033C0.5 121.033 5.64535 142.133 21.0814 141.895C36.5174 141.657 28.9012 133.238 28.9012 133.238C28.9012 133.238 33.3488 129.716 15.3256 128.552C6.83721 128.022 0.5 121.033 0.5 121.033Z" fill="#2A94F4"/>
  <path d="M27.8547 140.783C27.8547 140.783 43.4651 136.335 38.6395 120.583C33.843 104.83 40.1512 99.7468 40.1512 99.7468C40.1512 99.7468 7.91279 112.375 27.8547 140.783Z" fill="#BEC0F4"/>
  <path d="M26.2849 140.253C33.2907 144.595 36.314 122.436 27.6221 111.978C18.9593 101.521 8.9593 96.967 5.23837 88.6803C5.23837 88.6803 -8.25 118.941 26.2849 140.253Z" fill="#0E538C"/>
  <path d="M105.5 140.942L109.163 145.231C109.163 145.231 104.25 150.208 105.878 149.758C107.535 149.281 116.576 142.663 116.576 142.663C116.576 142.663 112.215 137.315 112.273 137.288C112.36 137.262 105.5 140.942 105.5 140.942Z" fill="#0B4870"/>
  <path d="M100.122 108.775L115.616 138.506L105.762 143.563L89.657 116.929L90.6744 108.166L100.122 108.775Z" fill="#0B4870"/>
  <path d="M140.267 117.432L151.866 153.411L153.203 153.385L144.279 117.22L140.267 117.432ZM119.308 118.015L110.471 153.623L112.041 153.597L123.872 117.909L119.308 118.015ZM129.628 117.008L130.994 153.2L132.855 153.173L133.669 117.061L129.628 117.008Z" fill="#D3D3D3"/>
  <path d="M118.901 132.364L145.384 131.093L145.558 133.582L116.895 135.144L118.901 132.364Z" fill="#D3D3D3"/>
  <path d="M119.279 118.015L118.872 119.841L123.262 119.762L123.814 117.935L119.279 118.015ZM129.657 117.882L129.715 119.63L133.61 119.55L133.669 117.459L129.657 117.882Z" fill="#D3D3D3"/>
  <path d="M130.18 131.702L130.267 134.297L128.581 134.323L127.942 131.808L130.616 131.676M133.61 131.676V134.244L134.89 134.164L135.238 131.596L133.61 131.676Z" fill="#D3D3D3"/>
  <path d="M110.18 115.42C113.93 113.752 129.134 114.652 129.134 114.652C129.134 114.652 124.831 66.1237 130.384 65.7265C135.936 65.3294 148.494 61.7023 150.762 69.0359C153.145 76.7401 149.919 117.988 146.75 117.591C139.512 116.691 117.128 119.047 110.384 117.591C108.669 117.22 110.18 115.42 110.18 115.42Z" fill="#BEC0F4"/>
  <path d="M145.994 69.8831C146.023 69.8831 146.11 70.0155 146.314 70.2802C146.401 70.4126 146.517 70.5714 146.634 70.7832C146.75 70.995 146.866 71.2333 147.012 71.4981C147.535 72.5835 148.087 74.2779 148.32 76.3959C148.581 78.5139 148.581 81.0555 148.552 83.8619C148.494 86.6682 148.32 89.7393 148.029 92.9692C147.738 96.1992 147.419 99.2703 147.099 102.05C146.779 104.83 146.459 107.345 146.052 109.437C145.645 111.528 145.093 113.196 144.657 114.308C144.221 115.42 143.872 116.002 143.843 116.002C143.785 115.976 144.017 115.367 144.366 114.229C144.715 113.09 145.151 111.449 145.5 109.357C145.849 107.266 146.11 104.777 146.372 101.997C146.663 99.2173 146.983 96.1462 147.244 92.9428C147.506 89.7393 147.738 86.6682 147.826 83.8619C147.913 81.082 147.971 78.5669 147.767 76.4754C147.593 74.3838 147.157 72.7159 146.721 71.6304C146.285 70.492 145.936 69.9096 145.994 69.8831Z" fill="#C5D6F6"/>
  <path d="M89.6861 87.3301L88.2907 86.6682C88.2907 86.6682 87.3895 86.377 85.936 85.5827C85.5581 85.3709 85.2093 85.1062 84.9477 84.815C84.5988 84.4443 84.1628 83.9413 83.9884 83.5971C83.7849 83.1735 83.1744 83.147 83.0581 83.5177C82.9709 83.8883 83.4651 85.0532 84.6279 86.0858C85.7907 87.1183 83.3488 86.8006 82.4477 86.7212C81.5465 86.6153 78.7849 86.4299 78.5523 86.6682C78.2326 86.9859 78.5814 87.4095 79.4826 87.4889C80.3837 87.5684 83.0581 87.992 83.0291 88.4156C83 88.8391 78.436 88.2832 78.436 88.2832C78.436 88.2832 77.4767 88.0184 77.4186 88.5214C77.3023 89.3951 82.157 89.6863 82.6221 89.6863C82.9419 89.6863 82.9128 90.1629 82.564 90.1364C82.2151 90.1099 78.0291 89.4745 77.9128 90.3747C77.8256 91.063 81.8953 90.6394 82.7384 91.1954C83.5814 91.7514 79.5698 91.2219 79.5116 91.8838C79.4826 92.122 79.5116 92.3074 81.8081 92.3338C84.1628 92.3338 90.5 91.4072 90.5 91.4072L89.5988 87.3301" fill="#FFBA98"/>
  <path d="M120.82 70.0419C120.82 70.0419 108.93 84.6032 106.198 85.2386C103.465 85.9004 87.8547 86.7476 87.8547 86.7476L86.4593 92.8898C86.4593 92.8898 106.43 93.8429 110.82 90.9042C117.738 86.2711 124.977 75.5752 124.977 75.5752C125.209 72.054 123.727 70.3067 120.82 70.0419Z" fill="#F7F7F7"/>
  <path d="M88.4942 146.29L89.25 151.691C89.25 151.691 82.2151 153.703 83.9012 154.073C85.5872 154.444 97.0698 152.935 97.0698 152.935C97.0698 152.935 96.2849 146.316 96.3721 146.316C96.4593 146.29 88.4942 146.29 88.4942 146.29ZM136.75 97.2582C136.75 97.2582 143.378 110.151 130.297 114.599L123.32 100.806L136.75 97.2582Z" fill="#0E538C"/>
  <path d="M127.651 100.7C127.651 100.7 89.9186 91.2484 85.6744 99.1908C81.4302 107.107 86.4884 148.381 86.4884 148.381L98.2907 147.243C98.2907 147.243 96.3139 110.999 98.2907 109.728C100.267 108.457 127.448 114.705 130.297 114.599C137.244 114.335 142.157 102.527 127.651 100.7Z" fill="#0E538C"/>
  <path d="M128.465 66.1501C123.523 66.256 119.483 69.8301 119.25 74.3309C119.047 78.0903 119.453 83.2265 118.349 87.7537C117.767 90.0835 114.424 99.4556 114.424 99.4556L117.767 99.9586C122.942 100.753 128.262 100.515 133.32 99.2703L137.128 98.3437C137.128 98.3437 139.337 87.9125 140.558 78.1168C141.605 69.9361 139.89 66.7591 134.424 66.0442L128.465 66.1501Z" fill="#F7F7F7"/>
  <path d="M125.849 66.7326C126.023 65.9383 125.733 62.6025 125.733 62.6025C125.733 62.6025 122.39 62.2054 122.273 59.1872C122.128 56.1691 122.506 49.2062 122.506 49.2062L128.669 46.6116L135.267 51.3506L135.878 54.6865L134.337 58.6577L133.64 66.2296L125.849 66.7326Z" fill="#B97A59"/>
  <path d="M125.733 62.6025C125.733 62.6025 127.971 62.6554 130.151 61.3317C130.151 61.3317 129.105 63.5291 125.791 63.3438L125.733 62.6025Z" fill="#A0654B"/>
  <path d="M118.436 97.6288L116.866 97.5494C116.866 97.5494 115.907 97.6288 114.221 97.4435C113.785 97.3906 113.349 97.2847 112.942 97.1258C112.448 96.914 111.808 96.6228 111.517 96.3845C111.14 96.0668 110.558 96.2786 110.645 96.6757C110.733 97.0729 111.721 97.9201 113.262 98.4231C114.802 98.9261 112.419 99.588 111.576 99.8262C110.733 100.065 108.116 100.965 108.029 101.256C107.884 101.679 108.407 101.918 109.25 101.653C110.122 101.388 112.709 100.726 112.884 101.124C113.029 101.521 108.669 102.738 108.669 102.738C108.669 102.738 107.68 102.871 107.855 103.347C108.174 104.195 112.68 102.58 113.116 102.421C113.407 102.315 113.61 102.738 113.291 102.844C112.942 102.95 108.872 103.983 109.192 104.83C109.424 105.492 112.942 103.533 113.959 103.745C114.977 103.93 111.11 104.989 111.343 105.598C111.43 105.836 111.547 105.995 113.64 105.121C115.791 104.221 121.081 100.965 121.081 100.965L118.378 97.6024" fill="#B97A59"/>
  <path d="M123.174 100.409C123.174 100.409 130.587 98.476 135.297 94.4783C139.047 91.3013 138.988 88.3361 138.988 88.3361L140.762 75.9459L123.174 100.409Z" fill="#D3D3D3"/>
  <path d="M133.494 67.1032C133.494 67.1032 132.07 85.2121 130.151 87.0918C128.233 88.9715 115.587 97.3376 115.587 97.3376L118.058 103.215C118.058 103.215 135.442 94.2136 137.419 89.5804C139.773 83.9678 140.209 75.231 140.267 71.4981C140.297 69.9096 139.599 68.374 138.233 67.3945C136.808 66.3619 135.209 66.309 133.494 67.1032Z" fill="#F7F7F7"/>
  <path d="M143.145 115.923C143.087 116.135 139.657 115.632 135.355 115.314C131.081 114.996 127.564 114.97 127.564 114.758C127.564 114.573 131.081 114.282 135.413 114.599C139.773 114.943 143.204 115.738 143.145 115.923ZM141.837 84.1001C141.808 84.1266 141.663 84.1001 141.605 83.8883C141.547 83.703 141.663 83.3853 141.954 83.2C142.099 83.0941 142.331 83.0147 142.593 83.0411C142.738 83.0676 142.855 83.0941 142.971 83.147C143.087 83.2 143.174 83.2794 143.262 83.3588C143.61 83.7295 143.698 84.2325 143.494 84.7355C143.291 85.2121 142.884 85.5563 142.39 85.6622C142.273 85.6886 142.128 85.6886 142.012 85.6886C141.895 85.6886 141.75 85.6357 141.663 85.5827C141.459 85.4768 141.314 85.318 141.256 85.1591C141.11 84.8679 141.14 84.5502 141.285 84.3914C141.401 84.2325 141.547 84.2325 141.576 84.259C141.605 84.2855 141.576 84.3914 141.576 84.4973C141.576 84.6032 141.605 84.762 141.75 84.8944C141.808 84.9738 141.895 85.0268 141.983 85.0532C142.041 85.0532 142.07 85.0797 142.099 85.0532C142.157 85.0532 142.215 85.0532 142.244 85.0268C142.448 84.9738 142.709 84.762 142.797 84.4973C142.884 84.259 142.855 83.9413 142.738 83.7824C142.593 83.5971 142.477 83.5706 142.273 83.6236C142.099 83.6765 141.983 83.8089 141.924 83.8883C141.866 83.9678 141.895 84.0737 141.837 84.1001Z" fill="#C5D6F6"/>
  <path d="M132.797 72.8218C132.855 72.8218 132.884 73.2454 132.884 73.9867C132.884 74.728 132.855 75.84 132.767 77.1637C132.651 78.5139 132.477 80.1289 132.041 81.8762C131.605 83.6236 130.849 85.5298 129.599 87.3036C128.32 89.0509 126.692 90.4276 125.151 91.5396C123.61 92.6515 122.128 93.5252 120.907 94.293C118.465 95.8021 117.07 96.8611 117.012 96.7816C116.983 96.7552 117.302 96.4375 117.913 95.9344C118.523 95.4314 119.453 94.7431 120.645 93.9223C121.837 93.1016 123.262 92.2015 124.773 91.0895C126.256 89.9776 127.826 88.6273 129.017 86.9594C130.209 85.265 130.965 83.4383 131.401 81.7439C131.866 80.0495 132.099 78.461 132.273 77.1372C132.593 74.4897 132.709 72.8218 132.797 72.8218ZM128.785 67.1827L129.047 64.4822L133.872 63.688L135.326 66.5473L128.785 67.1827ZM125.733 64.1645L127.651 64.4822V67.1827L125.238 66.7326L125.82 63.688M119.948 76.7666C119.948 79.5994 119.57 82.4057 118.814 85.1591L119.948 76.7666Z" fill="#D3D3D3"/>
  <path d="M45.5872 95.8021H167.128V99.4291H45.5872V95.8021ZM55.093 99.4291L45.5872 153.862L50.3256 153.941L66.6628 99.4291H55.093Z" fill="#254368"/>
  <path d="M158.291 98.8202L163.814 155H159.366L147.419 101.15L146.808 97.1523L158.291 98.8202Z" fill="#254368"/>
  <path d="M147.157 99.4291L147.593 101.918L158.552 101.547L158.349 99.4291H147.157ZM55.093 99.4291L54.657 101.997L65.9651 101.706L66.6628 99.4291H55.093Z" fill="#000C38"/>
  <path d="M63.7849 75.6546L71.3721 95.8021H105.645L105.384 94.7695L91.5174 94.3724L85.1512 75.6546H63.7849Z" fill="#D3D3D3"/>
  <path d="M78.9884 85.3974C79.2209 86.2181 78.814 87.0389 78.1163 87.1977C77.4186 87.3566 76.6628 86.8271 76.4302 86.0063C76.1977 85.1856 76.6047 84.3649 77.3023 84.206C78 84.0472 78.7558 84.5767 78.9884 85.3974Z" fill="#F7F7F7"/>
  <path d="M147.651 89.5275C146.634 86.377 146.169 81.9557 145.907 78.6992C145.849 78.0639 145.82 77.3755 146.081 76.7931C146.343 76.1841 146.954 75.6546 147.651 75.6811C148.233 75.6811 148.785 76.0782 149.076 76.5283C149.366 77.0049 149.483 77.5344 149.599 78.0639C150.238 81.1085 150.907 84.1266 151.547 87.1712C152.157 86.0858 153 85.1062 153.959 84.2855C154.395 83.9148 155.035 83.5442 155.558 83.8089C156.023 84.0472 156.081 84.6296 156.052 85.1327C155.994 86.6153 155.791 88.0978 155.442 89.554" fill="#2A94F4"/>
  <path d="M146.256 89.2098C146.256 89.2098 144.541 95.3785 151.459 95.6697C157.826 95.9344 156.314 89.2098 156.314 89.2098H146.256Z" fill="#0E538C"/>
  <path d="M130.151 52.0125C130.151 52.0125 130.209 52.039 130.297 52.0919C130.384 52.1449 130.529 52.2243 130.703 52.3567C131.023 52.595 131.43 53.0715 131.547 53.7599C131.605 54.104 131.605 54.5012 131.459 54.8718C131.314 55.2689 131.081 55.6396 130.674 55.9573C130.5 56.1161 130.267 56.2485 130.035 56.3544C129.802 56.4603 129.541 56.5397 129.25 56.5662C128.698 56.6456 128.116 56.5397 127.593 56.3015C127.07 56.0367 126.663 55.6396 126.43 55.1895C126.314 54.9512 126.227 54.713 126.198 54.4747C126.169 54.2364 126.169 53.9981 126.198 53.7599C126.256 53.3098 126.488 52.8862 126.779 52.5685C127.07 52.2508 127.419 52.039 127.767 51.8801C128.465 51.5889 129.134 51.6684 129.512 51.7743C129.715 51.8272 129.86 51.8802 129.948 51.9331C130.093 51.9861 130.151 52.0125 130.151 52.0125C130.151 52.039 129.948 51.9066 129.541 51.8272C129.134 51.7478 128.523 51.6948 127.855 51.986C127.535 52.1184 127.186 52.3302 126.924 52.6479C126.663 52.9656 126.459 53.3363 126.401 53.7599C126.372 53.9717 126.372 54.2099 126.401 54.4217C126.43 54.66 126.517 54.8718 126.634 55.0836C126.837 55.5072 127.244 55.8779 127.709 56.1426C128.203 56.3809 128.756 56.4603 129.279 56.4074C129.541 56.3809 129.773 56.3015 130.006 56.222C130.238 56.1161 130.442 56.0102 130.616 55.8514C130.994 55.5602 131.227 55.1895 131.372 54.8189C131.517 54.4482 131.517 54.0776 131.459 53.7599C131.343 53.098 130.965 52.6214 130.674 52.3832C130.355 52.1184 130.151 52.039 130.151 52.0125ZM122.738 51.536H122.913C123.029 51.536 123.174 51.5625 123.378 51.6154C123.785 51.7213 124.366 51.9596 124.831 52.5155C125.064 52.8068 125.238 53.1509 125.297 53.5481C125.355 53.9452 125.326 54.3953 125.151 54.8453C125.064 55.0571 124.919 55.2689 124.773 55.4543C124.599 55.6396 124.424 55.8249 124.192 55.9573C123.727 56.2485 123.174 56.4074 122.564 56.3809C121.983 56.3544 121.43 56.1691 120.994 55.8514C120.762 55.6925 120.587 55.5072 120.442 55.3219C120.297 55.1101 120.18 54.8983 120.093 54.6865C119.919 54.2364 119.948 53.7863 120.035 53.3892C120.122 52.9921 120.355 52.6479 120.587 52.3832C121.081 51.8537 121.692 51.6419 122.099 51.5624C122.302 51.536 122.477 51.5095 122.593 51.536C122.68 51.5095 122.738 51.536 122.738 51.536C122.738 51.5625 122.506 51.536 122.099 51.6154C121.692 51.6948 121.11 51.9331 120.645 52.4361C120.413 52.7009 120.209 53.0186 120.122 53.4157C120.035 53.7863 120.035 54.2364 120.18 54.6335C120.238 54.8453 120.355 55.0571 120.5 55.2425C120.645 55.4278 120.82 55.6131 121.023 55.7455C121.43 56.0367 121.953 56.222 122.506 56.2485C123.058 56.2485 123.61 56.1161 124.017 55.8514C124.221 55.719 124.424 55.5602 124.57 55.3748C124.715 55.1895 124.86 55.0042 124.948 54.7924C125.122 54.3953 125.18 53.9717 125.122 53.5745C125.064 53.1774 124.89 52.8597 124.686 52.5685C124.25 52.0125 123.698 51.7478 123.32 51.6419C122.971 51.536 122.738 51.536 122.738 51.536Z" fill="#0B4870"/>
  <path d="M125.209 54.1835C125.209 54.157 125.471 54.1305 125.791 54.1305C126.11 54.1305 126.343 54.1835 126.343 54.2099C126.343 54.2364 126.081 54.2629 125.762 54.2629C125.442 54.2629 125.18 54.2364 125.209 54.1835ZM131.401 54.3953C131.401 54.3688 132.012 54.3423 132.767 54.3688C133.523 54.3953 134.134 54.4482 134.134 54.4747C134.134 54.5012 133.523 54.5276 132.767 54.5012C132.012 54.4747 131.401 54.4217 131.401 54.3953Z" fill="#0B4870"/>
  <path d="M134.105 59.1608C135.878 57.3869 136.052 54.8189 136.081 52.4096C136.11 51.2447 136.023 50.0534 135.384 49.0473C134.744 48.0678 133.64 47.4324 132.506 46.9823C130.762 46.2939 128.785 45.9762 126.924 46.2939C125.064 46.6116 123.291 47.6177 122.36 49.1268C122.36 49.1268 130.994 48.9679 131.576 49.2856C132.157 49.6033 133.93 50.7417 133.785 52.1449C133.64 53.5481 133.203 55.6131 133.203 55.6131L134.599 55.4278C134.599 55.4278 134.483 53.5216 135.093 53.5745C135.674 53.6804 134.105 59.1608 134.105 59.1608Z" fill="#0E538C"/>
  <path d="M134.512 55.9043C134.57 56.1161 134.831 56.275 135.093 56.2485C135.355 56.2485 135.587 56.1161 135.791 55.9838C136.198 55.6925 136.547 55.2689 136.605 54.7924C136.663 54.3158 136.43 53.7863 135.994 53.5481C135.529 53.3098 134.86 53.4157 134.599 53.8393L134.512 55.9043Z" fill="#B97A59"/>
</svg>
