<svg width="128" height="127" viewBox="0 0 128 127" fill="none" xmlns="http://www.w3.org/2000/svg">
<g id="Icons">
<path id="Vector" d="M117.333 61.3855C117.333 75.5303 111.714 89.0959 101.712 99.0978C91.7105 109.1 78.145 114.719 64.0001 114.719C49.8552 114.719 36.2897 109.1 26.2877 99.0978C16.2858 89.0959 10.6667 75.5303 10.6667 61.3855C10.6667 47.2406 16.2858 33.675 26.2877 23.6731C36.2897 13.6712 49.8552 8.05212 64.0001 8.05212C78.145 8.05212 91.7105 13.6712 101.712 23.6731C111.714 33.675 117.333 47.2406 117.333 61.3855ZM90.8694 41.1881C90.3936 40.7131 89.8268 40.3389 89.2029 40.0881C88.5791 39.8373 87.911 39.7149 87.2388 39.7284C86.5665 39.7418 85.9039 39.8908 85.2906 40.1664C84.6773 40.4419 84.1259 40.8384 83.6694 41.3321L60.5121 70.8308L46.5601 56.8735C45.6187 55.9569 44.3544 55.448 43.0406 55.4567C41.7268 55.4655 40.4693 55.9913 39.5403 56.9203C38.6113 57.8493 38.0855 59.1068 38.0767 60.4206C38.0679 61.7344 38.5769 62.9988 39.4934 63.9401L57.1361 81.5881C57.6121 82.0605 58.1782 82.4324 58.8008 82.6819C59.4233 82.9314 60.0896 83.0532 60.7601 83.0403C61.4306 83.0274 62.0917 82.8799 62.7042 82.6066C63.3166 82.3333 63.8679 81.9398 64.3254 81.4495L90.9388 48.1855C91.8466 47.242 92.3483 45.9803 92.3364 44.6711C92.3244 43.3618 91.7996 42.1095 90.8747 41.1828H90.8641L90.8694 41.1881Z" fill="#4C5AF6"/>
</g>
</svg>
