<svg width="48" height="48" viewBox="0 0 48 48" fill="none" xmlns="http://www.w3.org/2000/svg">
<g id="Frame">
<path id="Vector" d="M23.731 4.1496C28.9759 4.1496 34.006 6.25673 37.7147 10.0075C41.4234 13.7582 43.5069 18.8453 43.5069 24.1496C43.5069 29.4539 41.4234 34.541 37.7147 38.2917C34.006 42.0425 28.9759 44.1496 23.731 44.1496C18.4861 44.1496 13.456 42.0425 9.74731 38.2917C6.03861 34.541 3.95508 29.4539 3.95508 24.1496C3.95508 18.8453 6.03861 13.7582 9.74731 10.0075C13.456 6.25673 18.4861 4.1496 23.731 4.1496ZM15.079 22.8996C14.7512 22.8996 14.4368 23.0313 14.2051 23.2657C13.9733 23.5001 13.843 23.8181 13.843 24.1496C13.843 24.4811 13.9733 24.7991 14.2051 25.0335C14.4368 25.2679 14.7512 25.3996 15.079 25.3996H29.3988L24.0909 30.7636C23.8785 31.0024 23.7648 31.3146 23.7733 31.6357C23.7818 31.9568 23.9118 32.2624 24.1365 32.4894C24.3612 32.7165 24.6635 32.8476 24.9811 32.8558C25.2986 32.864 25.6071 32.7487 25.8431 32.5336L33.259 25.0336C33.3741 24.9175 33.4655 24.7795 33.5278 24.6277C33.5901 24.4758 33.6221 24.313 33.6221 24.1486C33.6221 23.9842 33.5901 23.8214 33.5278 23.6695C33.4655 23.5177 33.3741 23.3797 33.259 23.2636L25.8431 15.7636C25.728 15.6472 25.5914 15.555 25.4411 15.492C25.2908 15.429 25.1297 15.3966 24.967 15.3966C24.8043 15.3966 24.6432 15.429 24.4929 15.492C24.3425 15.555 24.206 15.6472 24.0909 15.7636C23.9759 15.88 23.8846 16.0181 23.8223 16.1701C23.7601 16.3221 23.728 16.4851 23.728 16.6496C23.728 16.8141 23.7601 16.9771 23.8223 17.1291C23.8846 17.2811 23.9759 17.4192 24.0909 17.5356L29.3988 22.8996H15.079Z" fill="#4C5AF6"/>
</g>
</svg>
