<svg width="64" height="64" viewBox="0 0 64 64" fill="none" xmlns="http://www.w3.org/2000/svg">
<g clip-path="url(#clip0_477_2739)">
<path d="M43.4244 36.7561L48.3524 30.0028L48.3458 29.9974L54.5458 23.0361L55.8458 24.1934L47.3164 33.7681L46.9764 33.4081L43.4244 36.7561Z" fill="#FAB05F"/>
<path d="M41.655 37.507L44.507 32.3216L46.947 28.9776L48.3457 29.9963L41.655 37.507Z" fill="#6599D1"/>
<path d="M40.6084 39.4111L41.6551 37.5071L48.3457 29.9965L48.3524 30.0018L43.4244 36.7565L40.6084 39.4111Z" fill="#74859D"/>
<path d="M33.7164 38.6359L31.3297 35.9545L29.6964 33.2919L31.1791 32.3825L33.3497 35.9225L33.7071 36.8945L33.0351 37.2185L33.7164 38.6359Z" fill="#9474B3"/>
<path d="M41.5591 40.905L48.1697 34.673L48.1577 34.661L52.1271 31.733L53.1604 33.133L44.3031 39.6664L41.5591 40.905Z" fill="#9474B3"/>
<path d="M41.9111 52.6093L38.0897 46.7999L38.0737 45.4853L40.2911 46.9799L43.3644 51.6533L41.9111 52.6093Z" fill="#528865"/>
<path d="M32.2257 42.8088L25.903 42.6075L22.811 42.0288L23.1324 40.3182L28.4644 41.3182L32.2257 42.8088Z" fill="#F48465"/>
<path d="M35.4511 38.2311L34.6018 36.4644L33.8911 36.8057L33.3498 35.9217L29.3884 25.1324L31.0204 24.5337L35.0284 35.4497L35.4511 38.2311Z" fill="#65C18B"/>
<path d="M33.7071 36.8949L33.8924 36.8056L33.3497 35.9216L33.7071 36.8949Z" fill="#35967F"/>
<path d="M37.4911 40.0839L37.3311 39.0305L45.5777 0.906532L47.2777 1.2732L41.6204 27.4239L37.4911 40.0839Z" fill="#F17CB0"/>
<path d="M36.4951 58.2125L36.3871 49.6779L37.4911 45.8885L38.0898 46.7992L38.2351 58.1899L36.4951 58.2125Z" fill="#FAB05F"/>
<path d="M37.4897 45.8877L38.0884 46.7997L38.0724 45.4863L37.6831 45.2237L37.4897 45.8877Z" fill="#C5923A"/>
<path d="M33.5484 39.574L27.9378 34.7606L20.6991 26.6313L21.9978 25.474L31.3298 35.9553L33.5484 39.574Z" fill="#40C7F4"/>
<path d="M34.6017 40.4778L33.5484 39.5738L31.3284 35.9551L33.7164 38.6365L34.6017 40.4778Z" fill="#1399D7"/>
<path d="M36.9657 40.7236L35.0297 35.4503L32.271 17.281L33.991 17.0196L37.3323 39.0303L36.9657 40.7236Z" fill="#FFE358"/>
<path d="M36.8671 41.1763L35.4511 38.2309L35.0284 35.4496L36.9644 40.7243L36.8671 41.1763Z" fill="#E2D63A"/>
<path d="M36.9657 40.7241L37.1337 41.1814L37.491 40.0827L37.331 39.0307L36.9657 40.7241Z" fill="#FEC855"/>
<path d="M36.8671 41.1765L37.0271 41.5072L37.1337 41.1819L36.9657 40.7245L36.8671 41.1765Z" fill="#F3C34B"/>
<path d="M39.7072 38.9017L40.8778 35.3151L53.3125 12.7071L54.8352 13.5457L44.5085 32.3217L39.7072 38.9017Z" fill="#40C7F4"/>
<path d="M39.2977 40.1534L39.7057 38.9014L44.5071 32.3214L41.6551 37.5068L39.2977 40.1534Z" fill="#00A6E2"/>
<path d="M39.0657 40.8655L39.2977 40.1535L41.655 37.5068L40.6083 39.4108L39.0657 40.8655Z" fill="#009ECA"/>
<path d="M40.4657 44.0122L39.5684 43.7135L45.0657 41.2309L52.6884 39.5709L53.059 41.2709L40.4657 44.0122Z" fill="#FFE358"/>
<path d="M45.8404 47.6337L42.9418 46.6697L39.3564 44.2537L40.4644 44.0123L46.3898 45.983L45.8404 47.6337Z" fill="#BF7BB4"/>
<path d="M38.9617 43.9869L39.3577 44.2535L40.4657 44.0122L39.5683 43.7135L38.9617 43.9869Z" fill="#C1768B"/>
<path d="M49.0044 52.8525L40.2898 46.9805L39.2858 45.4539L42.9418 46.6699L49.9764 51.4099L49.0044 52.8525Z" fill="#F48465"/>
<path d="M40.2897 46.9802L38.0724 45.4856L38.067 45.0482L39.2857 45.4536L40.2897 46.9802Z" fill="#B3653B"/>
<path d="M37.6831 45.2241L38.0738 45.4855L38.0671 45.0481L37.7631 44.9468L37.6831 45.2241Z" fill="#DE5E2A"/>
<path d="M42.9417 46.6693L39.2857 45.4533L38.6044 44.4173L39.3564 44.2533L42.9417 46.6693Z" fill="#DC4F5A"/>
<path d="M38.0604 44.5353L38.0671 45.0473L39.2871 45.4526L38.6058 44.418L38.0604 44.5353Z" fill="#C4464B"/>
<path d="M37.8711 44.5773L37.7631 44.9466L38.0671 45.048L38.0591 44.536L37.8711 44.5773Z" fill="#D53D46"/>
<path d="M38.4684 44.2101L38.6057 44.4181L39.3577 44.2528L38.9617 43.9874L38.4684 44.2101Z" fill="#DC4C4A"/>
<path d="M38.0591 44.3949L38.0604 44.5349L38.6044 44.4176L38.4684 44.2096L38.0591 44.3949Z" fill="#D64A47"/>
<path d="M37.9058 44.4645L37.8724 44.5779L38.0604 44.5352L38.0591 44.3952L37.9058 44.4645Z" fill="#DA4945"/>
<path d="M30.2817 40.1672L23.9764 37.6686L10.759 30.5046L11.5884 28.9752L23.239 35.2899L23.2137 35.3272L30.2817 40.1672Z" fill="#7BACBD"/>
<path d="M31.7978 39.0969L24.4751 34.0836L12.0778 23.4489L13.2098 22.1289L27.9378 34.7609L31.7978 39.0969Z" fill="#FAB05F"/>
<path d="M34.3111 40.8179L31.7977 39.0965L27.9377 34.7619L33.5484 39.5739L34.3111 40.8179Z" fill="#D3A564"/>
<path d="M34.9883 41.282L34.311 40.818L33.5483 39.574L34.6017 40.478L34.9883 41.282Z" fill="#C79762"/>
<path d="M34.9325 44.6354L1.06445 43.558L1.11912 41.8194L25.9031 42.6074L35.2498 44.3594L34.9325 44.6354Z" fill="#BF7BB4"/>
<path d="M35.2497 44.36L25.9031 42.608L32.2257 42.8093L35.5284 44.1187L35.2497 44.36Z" fill="#C14D82"/>
<path d="M29.2377 51.8721L28.0977 50.5574L34.9323 44.6347L35.8563 44.6654L34.7737 47.0747L29.2377 51.8721Z" fill="#6599D1"/>
<path d="M34.9312 44.6349L35.8565 44.6655L35.9352 44.4882L35.2485 44.3602L34.9312 44.6349Z" fill="#5C74B9"/>
<path d="M35.2498 44.36L35.9364 44.488L36.0151 44.3107L35.5284 44.1174L35.2498 44.36Z" fill="#6367A3"/>
<path d="M34.7738 47.0745L29.4165 59.0011L31.0018 59.7145L34.6098 51.6865L34.0378 51.5198L35.5218 46.4265L34.7738 47.0745Z" fill="#FFE358"/>
<path d="M34.7738 47.0745L35.5218 46.4265L36.0338 44.6705L35.8578 44.6651L34.7738 47.0745Z" fill="#DFCA5C"/>
<path d="M35.8564 44.6648L36.0324 44.6715L36.0778 44.5142L35.9351 44.4888L35.8564 44.6648Z" fill="#D8BF5B"/>
<path d="M35.9364 44.4885L36.0777 44.5151L36.1257 44.3538L36.0151 44.3111L35.9364 44.4885Z" fill="#D9BC55"/>
<path d="M43.3857 38.1799L47.3164 33.7679L48.1577 34.6613L43.3857 38.1799Z" fill="#F287B6"/>
<path d="M41.2203 39.7773L43.4243 36.756L46.9763 33.408L47.3163 33.768L43.3857 38.18L41.2203 39.7773Z" fill="#F16884"/>
<path d="M39.8524 40.7865L40.6084 39.4118L43.4258 36.7558L41.2204 39.7772L39.8524 40.7865Z" fill="#C05A95"/>
<path d="M40.5537 41.3594L43.3857 38.1794L48.1577 34.6607L48.1697 34.6727L41.559 40.9047L40.5537 41.3594Z" fill="#C94D9C"/>
<path d="M39.8257 41.688L41.2204 39.7773L43.3857 38.18L40.5537 41.36L39.8257 41.688Z" fill="#CA3C89"/>
<path d="M39.2004 41.9705L39.8511 40.7865L41.2204 39.7771L39.8258 41.6878L39.2004 41.9705Z" fill="#B83990"/>
<path d="M38.8511 41.5249L39.0657 40.8649L40.6084 39.4116L39.8524 40.7862L38.8511 41.5249Z" fill="#AD6DA7"/>
<path d="M38.8511 41.5245L38.6191 42.2325L39.2005 41.9712L39.8525 40.7872L38.8511 41.5245Z" fill="#AA62A5"/>
<path d="M35.7084 52.0061L34.6084 51.6861L36.3631 47.7834L36.3871 49.6781L35.7084 52.0061Z" fill="#40C7F4"/>
<path d="M36.3617 47.7837L36.3857 49.6783L37.4897 45.8877L37.3257 45.6383L36.3617 47.7837Z" fill="#66AFB5"/>
<path d="M37.3258 45.6381L37.4898 45.8875L37.6831 45.2235L37.5511 45.1355L37.3258 45.6381Z" fill="#49A3A4"/>
<path d="M37.551 45.1353L37.683 45.2246L37.763 44.9473L37.6537 44.9099L37.551 45.1353Z" fill="#6A9498"/>
<path d="M37.7951 44.5928L37.6538 44.9102L37.7645 44.9475L37.8725 44.5768L37.7951 44.5928Z" fill="#648DA0"/>
<path d="M37.839 44.4945L37.795 44.5931L37.871 44.5771L37.9044 44.4651L37.839 44.4945Z" fill="#6890A0"/>
<path d="M34.6084 51.6858L34.0377 51.5191L35.5217 46.4271L36.3351 45.7205L36.3617 47.7831L34.6084 51.6858Z" fill="#5EBFBA"/>
<path d="M36.3364 45.7209L36.3631 47.7836L37.3258 45.6382L37.0018 45.1449L36.3364 45.7209Z" fill="#62B9AC"/>
<path d="M37.0005 45.1449L37.3258 45.6382L37.5512 45.1355L37.2472 44.9302L37.0005 45.1449Z" fill="#5DB6A8"/>
<path d="M37.2484 44.93L37.5524 45.1354L37.6537 44.91L37.3777 44.818L37.2484 44.93Z" fill="#64B3A6"/>
<path d="M37.583 44.6397L37.3763 44.8184L37.6523 44.9091L37.7937 44.5931L37.583 44.6397Z" fill="#65B1A8"/>
<path d="M37.6565 44.5773L37.5845 44.64L37.7951 44.5933L37.8405 44.4947L37.6565 44.5773Z" fill="#65B2A9"/>
<path d="M35.5205 46.4265L36.3352 45.7212L36.3218 44.6798L36.0325 44.6705L35.5205 46.4265Z" fill="#46B7B7"/>
<path d="M36.3365 45.7209L37.0018 45.1449L36.7031 44.6916L36.3231 44.6796L36.3365 45.7209Z" fill="#4DB5B2"/>
<path d="M37.0005 45.1449L37.2471 44.9302L36.9031 44.6982L36.7031 44.6916L37.0005 45.1449Z" fill="#4AB4B0"/>
<path d="M37.2484 44.9301L37.3778 44.8181L37.0284 44.7021L36.9044 44.6981L37.2484 44.9301Z" fill="#4EB2AF"/>
<path d="M37.1818 44.7068L37.1804 43.8762L37.1538 44.7055L37.0284 44.7015L37.3778 44.8188L37.5844 44.6402L37.3671 44.6868L37.1818 43.8375V44.7068Z" fill="#4CB1AF"/>
<path d="M37.3671 44.6865L37.5844 44.6399L37.6564 44.5772L37.5404 44.6292L37.1831 43.8385L37.1818 43.8372L37.3671 44.6865Z" fill="#4EB2B0"/>
<path d="M36.0337 44.671L36.323 44.679L36.3217 44.5603L36.0777 44.515L36.0337 44.671Z" fill="#48B3B5"/>
<path d="M36.0778 44.5148L36.3218 44.5602L36.3191 44.4308L36.1258 44.3535L36.0778 44.5148Z" fill="#49B2B3"/>
<path d="M36.3231 44.6793L36.7031 44.6913L36.6591 44.6246L36.3218 44.5606L36.3231 44.6793Z" fill="#49B2B3"/>
<path d="M36.7031 44.6913L36.9031 44.698L36.8457 44.6593L36.6591 44.6247L36.7031 44.6913Z" fill="#49B2B2"/>
<path d="M36.3218 44.5605L36.6591 44.6245L36.6071 44.5445L36.3191 44.4312L36.3218 44.5605Z" fill="#4BB2B2"/>
<path d="M36.6591 44.624L36.8457 44.6587L36.7777 44.6134L36.6071 44.5454L36.6591 44.624Z" fill="#4AB2B2"/>
<path d="M37.1777 43.8408V43.8418L37.1797 43.8388L37.1777 43.8408Z" fill="#49B2B2"/>
<path d="M37.1763 43.8432L37.175 43.8469L37.1775 43.8419L37.1763 43.8432Z" fill="#4AB2B2"/>
<path d="M37.1777 43.8417L37.175 43.855L37.1804 43.8403V43.8377L37.1777 43.8417ZM36.903 44.699L37.027 44.7017L36.967 44.6817L36.8457 44.659L36.903 44.699Z" fill="#4AB1B2"/>
<path d="M37.1764 43.8465L36.859 44.6452L36.7777 44.6132L36.847 44.6585L36.967 44.6812L36.907 44.6625L37.1764 43.8545L37.179 43.8412L37.1764 43.8465Z" fill="#4AB1B2"/>
<path d="M37.1764 43.8549L37.019 44.6909L36.967 44.6816L37.0284 44.7016L37.155 44.7056L37.1817 43.8762V43.8402L37.1764 43.8549Z" fill="#4AB1B2"/>
<path d="M36.9071 44.6624L36.9671 44.6811L37.0191 44.6918L37.1764 43.8544L36.9071 44.6624Z" fill="#4AB1B2"/>
<path d="M37.1777 43.8396V43.8406L37.1797 43.8386L37.1777 43.8396Z" fill="#4AB2B2"/>
<path d="M37.1791 43.8381H37.1801V43.8371L37.1791 43.8381Z" fill="#49B2B3"/>
<path d="M37.1789 43.8384L37.1779 43.8394L37.1799 43.8384H37.1789Z" fill="#49B2B2"/>
<path d="M37.1777 43.8384V43.8394L37.1787 43.8384H37.1777Z" fill="#49B2B2"/>
<path d="M37.1804 43.8765L37.1818 44.7072V43.8365L37.1804 43.8765Z" fill="#4AB1B2"/>
<path d="M37.1804 43.8386V43.8406L37.1814 43.8376L37.1804 43.8386Z" fill="#48B1B3"/>
<path d="M37.1804 43.8405V43.8765L37.1818 43.8365L37.1804 43.8405Z" fill="#48B1B3"/>
<path d="M37.1804 43.8371V43.8381L37.1814 43.8371H37.1804Z" fill="#48B1B3"/>
<path d="M30.4203 39.1824L23.239 35.2904L24.1963 33.8917L24.475 34.0837L30.4203 39.1824Z" fill="#BF7BB4"/>
<path d="M32.6737 41.1155L30.2817 40.1675L23.2137 35.3275L23.2391 35.2901L30.4204 39.1821L32.6737 41.1155Z" fill="#9768A2"/>
<path d="M33.2284 40.7047L30.4191 39.182L24.4751 34.0834L31.7964 39.0967L33.2284 40.7047Z" fill="#C26286"/>
<path d="M34.7457 41.5266L33.2297 40.7053L31.7977 39.0973L34.3111 40.8173L34.7457 41.5266Z" fill="#B46086"/>
<path d="M34.7445 41.5269L35.2325 41.7909L34.9885 41.2816L34.3098 40.8176L34.7445 41.5269Z" fill="#B05B84"/>
<path d="M34.0964 41.6794L32.6737 41.1154L30.4191 39.1821L33.2284 40.7048L34.0964 41.6794Z" fill="#B55C81"/>
<path d="M35.0777 42.0681L34.0977 41.6801L33.2297 40.7054L34.7457 41.5268L35.0777 42.0681Z" fill="#B15C81"/>
<path d="M35.0764 42.0681L35.4337 42.2095L35.2324 41.7908L34.7444 41.5268L35.0764 42.0681Z" fill="#B05A81"/>
<path d="M40.9736 42.1208L44.303 39.6662L45.0763 39.3155L45.7923 40.9022L45.0643 41.2302L40.9736 42.1208Z" fill="#7BACBD"/>
<path d="M40.0577 42.3202L41.5591 40.9055L44.3031 39.6655L40.9737 42.1202L40.0577 42.3202Z" fill="#5C87AA"/>
<path d="M39.567 43.7135L39.0483 43.5415L40.9737 42.1202L45.0643 41.2308L39.567 43.7135Z" fill="#83A793"/>
<path d="M39.0484 43.5411L38.8378 43.4705L40.0578 42.3198L40.9738 42.1211L39.0484 43.5411Z" fill="#7C9E8F"/>
<path d="M38.6912 43.8045L38.9605 43.9872L39.5672 43.7138L39.0485 43.5405L38.6912 43.8045Z" fill="#74889B"/>
<path d="M38.5697 43.7229L38.691 43.8042L39.0484 43.5402L38.8377 43.4709L38.5697 43.7229Z" fill="#71849A"/>
<path d="M38.3617 44.048L38.4684 44.2107L38.9617 43.9867L38.691 43.804L38.3617 44.048Z" fill="#837F83"/>
<path d="M38.3098 43.9689L38.3618 44.0476L38.6911 43.8049L38.5698 43.7236L38.3098 43.9689Z" fill="#827D83"/>
<path d="M38.0577 44.2725L38.0591 44.3951L38.4684 44.2098L38.3617 44.0485L38.0577 44.2725Z" fill="#817E82"/>
<path d="M38.0564 44.2077L38.0577 44.2731L38.3617 44.0477L38.3097 43.9691L38.0564 44.2077Z" fill="#807D81"/>
<path d="M37.9338 44.3625L37.9044 44.4652L38.0591 44.3945L38.0578 44.2732L37.9338 44.3625Z" fill="#837D81"/>
<path d="M37.951 44.3073L37.9337 44.3619L38.0577 44.2726L38.0564 44.2073L37.951 44.3073Z" fill="#837D81"/>
<path d="M39.6111 42.4177L40.5538 41.3591L41.5591 40.9057L40.0578 42.3204L39.6111 42.4177Z" fill="#787FA3"/>
<path d="M39.8271 41.6876L39.2338 42.4996L39.6111 42.417L40.5538 41.3583L39.8271 41.6876Z" fill="#7A7C9D"/>
<path d="M39.2004 41.9709L38.8657 42.5802L39.2337 42.5002L39.8271 41.6882L39.2004 41.9709Z" fill="#737A9F"/>
<path d="M38.6191 42.2326L38.4791 42.6646L38.8658 42.5806L39.2005 41.9712L38.6191 42.2326Z" fill="#6A82A6"/>
<path d="M39.6111 42.4172L38.7111 43.4292L38.8377 43.4706L40.0591 42.3199L39.6111 42.4172Z" fill="#85889A"/>
<path d="M39.2337 42.5001L38.5857 43.3868L38.711 43.4294L39.611 42.4174L39.2337 42.5001Z" fill="#848898"/>
<path d="M38.8657 42.5805L38.447 43.3419L38.5857 43.3872L39.2337 42.5005L38.8657 42.5805Z" fill="#838799"/>
<path d="M38.479 42.6645L38.2764 43.2831L38.447 43.3418L38.8657 42.5805L38.479 42.6645Z" fill="#80899A"/>
<path d="M38.4938 43.6713L38.5711 43.7233L38.8378 43.4713L38.7111 43.4286L38.4938 43.6713Z" fill="#7F7E9D"/>
<path d="M38.4165 43.6196L38.4938 43.6716L38.7112 43.429L38.5858 43.3863L38.4165 43.6196Z" fill="#7F7E9C"/>
<path d="M38.327 43.5598L38.4177 43.6198L38.5857 43.3864L38.447 43.3411L38.327 43.5598Z" fill="#7E7D9D"/>
<path d="M38.2124 43.4816L38.3271 43.5603L38.4471 43.3416L38.2764 43.2843L38.2124 43.4816Z" fill="#7E7F9D"/>
<path d="M38.275 43.9161L38.3097 43.9695L38.5697 43.7228L38.4937 43.6708L38.275 43.9161Z" fill="#867C94"/>
<path d="M38.2405 43.8621L38.2751 43.9154L38.4938 43.6714L38.4165 43.6194L38.2405 43.8621Z" fill="#857B93"/>
<path d="M38.1964 43.7961L38.2391 43.8615L38.4164 43.6201L38.3257 43.5601L38.1964 43.7961Z" fill="#857B93"/>
<path d="M38.0564 44.1633V44.2073L38.3097 43.9686L38.2751 43.9166L38.0564 44.1633Z" fill="#857B93"/>
<path d="M38.0551 44.1141L38.0564 44.1635L38.2751 43.9168L38.2404 43.8621L38.0551 44.1141Z" fill="#857B93"/>
<path d="M38.0538 44.0541L38.0552 44.1141L38.2392 43.8621L38.1965 43.7968L38.0538 44.0541Z" fill="#857B93"/>
<path d="M37.9617 44.2688L37.951 44.3075L38.0564 44.2075V44.1635L37.9617 44.2688Z" fill="#857B93"/>
<path d="M37.975 44.2256L37.9617 44.2683L38.0563 44.163L38.055 44.1136L37.975 44.2256Z" fill="#857B93"/>
<path d="M37.9911 44.1704L37.9751 44.2251L38.0564 44.1144L38.0551 44.0544L37.9911 44.1704Z" fill="#857B93"/>
<path d="M38.1377 43.7085L38.1964 43.7965L38.3257 43.5592L38.2124 43.4818L38.1377 43.7085Z" fill="#857B94"/>
<path d="M38.0538 43.9689L38.0552 44.0542L38.1978 43.7955L38.1392 43.7089L38.0538 43.9689Z" fill="#847B94"/>
<path d="M38.0151 44.0865L37.9911 44.1705L38.0551 44.0545L38.0538 43.9692L38.0151 44.0865Z" fill="#857B94"/>
<path d="M37.8817 44.4021L37.8403 44.4941L37.9057 44.4648L37.935 44.3621L37.8817 44.4021Z" fill="#438FA4"/>
<path d="M37.9045 44.3505L37.8818 44.4025L37.9338 44.3625L37.9512 44.3078L37.9045 44.3505Z" fill="#438FA4"/>
<path d="M37.7258 44.5173L37.6565 44.5773L37.8392 44.4946L37.8818 44.4026L37.7258 44.5173Z" fill="#3E9BA6"/>
<path d="M37.7524 44.4945L37.7258 44.5172L37.8818 44.4025L37.9044 44.3505L37.7791 44.4692L37.1831 43.8372L37.7524 44.4945Z" fill="#3E9BA6"/>
<path d="M37.5404 44.6289L37.6551 44.5769L37.7258 44.5169L37.6978 44.5369L37.1831 43.8382L37.5404 44.6289Z" fill="#379BA9"/>
<path d="M37.1844 43.8393L37.1831 43.838L37.1818 43.8366L37.1844 43.8393ZM37.6978 44.5366L37.7258 44.5166L37.7524 44.494L37.1844 43.8393L37.6978 44.5366Z" fill="#379BA9"/>
<path d="M37.9204 44.3157L37.9044 44.3503L37.9511 44.3077L37.9618 44.269L37.9204 44.3157Z" fill="#448FAB"/>
<path d="M37.9377 44.275L37.9191 44.3163L37.9617 44.2683L37.9751 44.2256L37.9377 44.275Z" fill="#448FAB"/>
<path d="M37.9604 44.2245L37.9377 44.2751L37.9751 44.2258L37.9897 44.1711L37.9604 44.2245Z" fill="#448FAB"/>
<path d="M37.9751 44.1933L37.9604 44.224L37.9911 44.1707L38.0151 44.0867L38.0084 44.1067L37.1818 43.8373L37.9751 44.1933Z" fill="#448FAB"/>
<path d="M37.7778 44.4692L37.9044 44.3506L37.9191 44.3159L37.8311 44.4159L37.1818 43.8372L37.7778 44.4692Z" fill="#4294AD"/>
<path d="M37.8311 44.4153L37.9204 44.3153L37.9378 44.2753L37.8844 44.3499L37.1818 43.8366L37.8311 44.4153Z" fill="#4294AD"/>
<path d="M37.8844 44.3492L37.9391 44.2746L37.9618 44.2239L37.9444 44.2559L37.1831 43.8372L37.8844 44.3492Z" fill="#4294AD"/>
<path d="M37.9444 44.2557L37.9618 44.2251L37.9751 44.1931L37.1831 43.8371L37.9444 44.2557Z" fill="#4294AD"/>
<path d="M31.8977 41.9618L28.4643 41.3178L16.687 36.6498L17.327 35.0338L23.9763 37.6685L31.8977 41.9618Z" fill="#B3D67F"/>
<path d="M33.5377 42.8506L32.2257 42.8093L28.4644 41.3186L31.8977 41.9613L33.5377 42.8506Z" fill="#B6B34D"/>
<path d="M33.2804 42.2212L31.8978 41.9625L23.9764 37.6692L30.2818 40.1679L33.2804 42.2212Z" fill="#86BC71"/>
<path d="M33.5377 42.8505L34.2324 42.8718L33.2804 42.2212L31.899 41.9612L33.5377 42.8505Z" fill="#8BB161"/>
<path d="M35.5285 44.1177L35.6632 44.003L33.5378 42.851L32.2258 42.8083L35.5285 44.1177Z" fill="#A1A164"/>
<path d="M35.6631 44.0024L35.7604 43.9184L34.2324 42.8718L33.5377 42.8504L35.6631 44.0024Z" fill="#91A16B"/>
<path d="M35.5284 44.1177L36.0151 44.311L36.0578 44.2164L35.6631 44.003L35.5284 44.1177Z" fill="#7AA372"/>
<path d="M35.6631 44.0025L36.0578 44.2158L36.0898 44.1452L35.7604 43.9185L35.6631 44.0025Z" fill="#72A275"/>
<path d="M36.015 44.3108L36.1257 44.3535L36.151 44.2668L36.0563 44.2162L36.015 44.3108Z" fill="#A9C245"/>
<path d="M36.0577 44.2161L36.1511 44.2667L36.1711 44.1987L36.0897 44.1454L36.0577 44.2161Z" fill="#A8C246"/>
<path d="M36.1257 44.3541L36.3191 44.4314V44.3581L36.1511 44.2661L36.1257 44.3541Z" fill="#76BE6D"/>
<path d="M36.3191 44.4309L36.6071 44.5455L36.5751 44.4962L36.3191 44.3575V44.4309Z" fill="#77BE6C"/>
<path d="M36.6071 44.5449L36.7777 44.6129L36.7284 44.5796L36.5751 44.4969L36.6071 44.5449Z" fill="#76BE6C"/>
<path d="M37.1697 43.8501L37.1564 43.8741L37.1764 43.8461V43.8435L37.1697 43.8501Z" fill="#76BE6C"/>
<path d="M37.1564 43.8741L37.0804 44.0088L36.7604 44.5981L36.7511 44.5915H36.7497L36.7284 44.5795L36.7777 44.6128L36.8591 44.6461L37.1751 43.8461L37.1564 43.8741Z" fill="#76BE6C"/>
<path d="M36.7511 44.5917L36.7604 44.5984L37.0804 44.0091L36.7511 44.5917Z" fill="#76BE6D"/>
<path d="M36.151 44.2665L36.319 44.3572L36.3177 44.2998L36.1697 44.1998L36.151 44.2665Z" fill="#76BE6D"/>
<path d="M36.3191 44.3577L36.5751 44.4963L36.5511 44.4603L36.3177 44.3003L36.3191 44.3577Z" fill="#76BE6D"/>
<path d="M37.0965 43.9353L36.6778 44.5473L36.5511 44.4607L36.5751 44.4967L36.7285 44.5793L36.6951 44.558L37.0751 43.9967L37.1325 43.8927L37.0965 43.9353Z" fill="#76BE6D"/>
<path d="M36.6964 44.5581L36.7284 44.5794L36.7497 44.5914L36.7444 44.5888L36.7377 44.5848L37.0751 43.9968L36.6964 44.5581Z" fill="#76BE6D"/>
<path d="M37.1324 43.8933L37.0751 43.996L37.1271 43.916L37.1577 43.8653L37.1324 43.8933Z" fill="#76BE6D"/>
<path d="M37.0751 43.9965L36.7378 44.5845L36.7445 44.5885L37.1285 43.9165L37.0751 43.9965Z" fill="#76BE6D"/>
<path d="M37.1604 43.8621L37.1417 43.8981L37.1564 43.8741L37.1697 43.8501L37.1604 43.8621Z" fill="#76BE6D"/>
<path d="M37.1404 43.8981L37.0804 44.0088L37.1564 43.8741L37.1404 43.8981Z" fill="#76BE6D"/>
<path d="M37.1578 43.8669L37.1591 43.8642L37.1605 43.8615L37.1578 43.8669ZM37.1338 43.9095L37.1405 43.8975L37.1578 43.8669L37.1338 43.9095Z" fill="#76BE6D"/>
<path d="M37.1337 43.9089L36.7511 44.5916L37.0804 44.0089L37.1404 43.8982L37.1337 43.9089Z" fill="#76BE6D"/>
<path d="M37.1577 43.8657L37.1271 43.9164L37.1337 43.9084L37.1591 43.8644L37.1577 43.8657Z" fill="#76BE6D"/>
<path d="M37.1284 43.916L36.7444 44.588L36.7497 44.592H36.7511L37.1351 43.9094L37.1284 43.916Z" fill="#76BE6D"/>
<path d="M37.1735 43.8445L37.1698 43.8507L37.1773 43.8432L37.1785 43.8407L37.1735 43.8445Z" fill="#77BE6C"/>
<path d="M37.1764 43.8396V43.8406L37.1784 43.8396V43.8386L37.1764 43.8396Z" fill="#76BE6C"/>
<path d="M37.1762 43.8407L37.1737 43.8445L37.1787 43.8407V43.8395L37.1762 43.8407Z" fill="#76BE6C"/>
<path d="M37.1378 43.8753L37.0964 43.9353L37.1324 43.894L37.1484 43.8673L37.1378 43.8753Z" fill="#76BE6C"/>
<path d="M37.1524 43.8549L37.1511 43.8574L37.1561 43.8537L37.1574 43.8524L37.1524 43.8549Z" fill="#76BE6C"/>
<path d="M37.156 43.8493L37.151 43.8556L37.156 43.8531L37.1585 43.8481L37.156 43.8493Z" fill="#76BE6D"/>
<path d="M37.151 43.8573L37.1377 43.8746L37.1484 43.8666L37.1564 43.8533L37.151 43.8573Z" fill="#76BE6C"/>
<path d="M37.1484 43.8669L37.1324 43.8936L37.1578 43.8656L37.1658 43.8509L37.1484 43.8669Z" fill="#76BE6C"/>
<path d="M37.1564 43.8525L37.1552 43.8538L37.1677 43.8463L37.1689 43.845L37.1564 43.8525Z" fill="#76BE6D"/>
<path d="M37.1589 43.848L37.1564 43.853L37.1689 43.8443L37.1701 43.8418L37.1589 43.848Z" fill="#76BE6D"/>
<path d="M37.1551 43.8537L37.1484 43.8671L37.1644 43.8511L37.1684 43.8457L37.1551 43.8537Z" fill="#76BE6D"/>
<path d="M37.1657 43.8501L37.1591 43.8621L37.1697 43.8501L37.1724 43.8434L37.1657 43.8501Z" fill="#76BE6C"/>
<path d="M37.1697 43.8441V43.8453L37.1759 43.8403L37.1697 43.8441Z" fill="#76BE6D"/>
<path d="M37.1712 43.8417L37.1699 43.8442L37.1762 43.8405V43.8392L37.1712 43.8417Z" fill="#76BE6D"/>
<path d="M37.1695 43.8456L37.1658 43.8506L37.1733 43.8443L37.1758 43.8406L37.1695 43.8456Z" fill="#76BE6D"/>
<path d="M37.1604 43.8621L37.1592 43.8646L37.1667 43.8521L37.1604 43.8621Z" fill="#76BE6D"/>
<path d="M37.1685 43.8453H37.1695V43.8443L37.1685 43.8453Z" fill="#76BE6D"/>
<path d="M37.164 43.8522L37.1577 43.866L37.159 43.8647L37.1652 43.8522H37.164Z" fill="#76BE6D"/>
<path d="M37.1644 43.8513H37.1657L37.1682 43.8451L37.1644 43.8513Z" fill="#76BE6D"/>
<path d="M34.1537 42.3846L33.2817 42.2206L30.2817 40.1673L32.6737 41.1153L34.1537 42.3846Z" fill="#8FA671"/>
<path d="M34.2324 42.8721L34.7417 42.8894L34.1537 42.3854L33.2804 42.2214L34.2324 42.8721Z" fill="#91A16B"/>
<path d="M34.839 42.5132L34.1537 42.3852L32.6737 41.1159L34.0964 41.6799L34.839 42.5132Z" fill="#9DA462"/>
<path d="M34.7403 42.8889L35.1857 42.9036L34.839 42.5129L34.1523 42.3849L34.7403 42.8889Z" fill="#9CA260"/>
<path d="M34.8391 42.5133L35.4164 42.6213L35.0764 42.068L34.0964 41.68L34.8391 42.5133Z" fill="#9BA462"/>
<path d="M35.4164 42.6213L35.6537 42.6653L35.4337 42.2093L35.0764 42.0679L35.4164 42.6213Z" fill="#9BA362"/>
<path d="M35.1858 42.9033L35.5964 42.9166L35.4164 42.6206L34.8391 42.5126L35.1858 42.9033Z" fill="#9CA361"/>
<path d="M35.5964 42.9165L35.7764 42.9219L35.6537 42.6659L35.4164 42.6219L35.5964 42.9165Z" fill="#9BA361"/>
<path d="M35.7604 43.9185L35.8511 43.8398L34.7418 42.8891L34.2324 42.8718L35.7604 43.9185Z" fill="#939B6F"/>
<path d="M35.8497 43.8392L35.9457 43.7566L35.1857 42.9032L34.7404 42.8886L35.8497 43.8392Z" fill="#979B69"/>
<path d="M35.9457 43.7565L36.055 43.6631L35.5963 42.9165L35.1857 42.9031L35.9457 43.7565Z" fill="#979B6A"/>
<path d="M36.0551 43.6628L36.1098 43.6148L35.7764 42.9215L35.5964 42.9162L36.0551 43.6628Z" fill="#979B6A"/>
<path d="M35.7605 43.9185L36.0898 44.1451L36.1232 44.0731L35.8512 43.8398L35.7605 43.9185Z" fill="#889B72"/>
<path d="M35.8497 43.8393L36.1217 44.074L36.1577 43.994L35.9457 43.7566L35.8497 43.8393Z" fill="#8B9B70"/>
<path d="M35.9457 43.7564L36.1577 43.9938L36.2003 43.8991L36.055 43.6631L35.9457 43.7564Z" fill="#8A9C70"/>
<path d="M36.0551 43.6629L36.2004 43.8989L36.2231 43.8483L36.1097 43.6149L36.0551 43.6629Z" fill="#8A9C70"/>
<path d="M36.0897 44.1453L36.1697 44.1986L36.1911 44.1319L36.1217 44.0733L36.0897 44.1453Z" fill="#9CA862"/>
<path d="M36.1217 44.0733L36.1897 44.132L36.2124 44.0546L36.1577 43.9946L36.1217 44.0733Z" fill="#9CA862"/>
<path d="M36.1578 43.9941L36.2112 44.0554L36.2378 43.9634L36.1992 43.8994L36.1578 43.9941Z" fill="#9CA862"/>
<path d="M36.2004 43.8993L36.2391 43.9633L36.2538 43.9139L36.2231 43.8486L36.2004 43.8993Z" fill="#9CA862"/>
<path d="M36.1697 44.1993L36.3177 44.3007L36.3163 44.2407L36.1897 44.1327L36.1697 44.1993Z" fill="#8AA670"/>
<path d="M36.3177 44.3001L36.5511 44.4614L36.5217 44.4161L36.3164 44.2401L36.3177 44.3001Z" fill="#8AA670"/>
<path d="M36.6151 44.4969L36.5217 44.4169L36.5497 44.4609L36.6777 44.5476L37.0964 43.9356L36.6151 44.4969Z" fill="#8AA670"/>
<path d="M36.191 44.1321L36.3164 44.2401V44.1734L36.2124 44.0548L36.191 44.1321Z" fill="#8BA66F"/>
<path d="M36.3164 44.2401L36.5217 44.4161L36.4897 44.3668L36.3164 44.1735V44.2401Z" fill="#8BA66F"/>
<path d="M36.5324 44.4152L36.4911 44.3672L36.5218 44.4166L36.6151 44.4966L37.0964 43.9352L37.1378 43.8752L36.5324 44.4152Z" fill="#8BA66F"/>
<path d="M36.2124 44.0553L36.3164 44.1726L36.3151 44.0873L36.2391 43.9633L36.2124 44.0553Z" fill="#8BA66F"/>
<path d="M36.239 43.9629L36.3163 44.0883L36.315 44.0403L36.255 43.9136L36.239 43.9629Z" fill="#8BA66F"/>
<path d="M36.4404 44.2917L36.3151 44.0877L36.3164 44.173L36.4911 44.3677L36.4564 44.3143L37.1511 43.857L37.1524 43.8543L36.4404 44.2917Z" fill="#8BA66F"/>
<path d="M36.3977 44.2137L36.3137 44.039L36.3151 44.087L36.4391 44.291L37.1511 43.855L37.1564 43.8483L36.3977 44.2137Z" fill="#8BA66F"/>
<path d="M36.4564 44.3144L36.4911 44.3678L36.5338 44.4158L37.1378 43.8758L37.1511 43.8571L36.4564 44.3144Z" fill="#8BA66F"/>
<path d="M39.2911 38.1969L41.6218 27.4249L45.2058 16.4382L46.8591 16.9769L40.8765 35.3156L39.2911 38.1969Z" fill="#AED476"/>
<path d="M37.6564 41.1697L37.4911 40.0843L41.6218 27.4243L39.2911 38.1963L37.6564 41.1697Z" fill="#ADB46D"/>
<path d="M37.1338 41.1812L37.3405 41.7439L37.6565 41.1692L37.4911 40.0826L37.1338 41.1812Z" fill="#B1C644"/>
<path d="M37.0271 41.5077L37.2338 41.9384L37.3404 41.7437L37.1338 41.181L37.0271 41.5077Z" fill="#AEC540"/>
<path d="M38.9004 40.007L39.2924 38.1963L40.8764 35.315L39.7071 38.9016L38.9004 40.007Z" fill="#7DC579"/>
<path d="M38.9004 40.0065L38.7311 40.7905L39.2991 40.1532L39.7071 38.9012L38.9004 40.0065Z" fill="#69BB78"/>
<path d="M38.7311 40.7901L38.6244 41.2821L39.0657 40.8661L39.2991 40.1528L38.7311 40.7901Z" fill="#6CB871"/>
<path d="M37.7244 41.6179L37.6564 41.1699L39.291 38.1966L38.9004 40.0073L37.7244 41.6179Z" fill="#7FB976"/>
<path d="M37.7244 41.6182L37.7644 41.8755L38.731 40.7902L38.9004 40.0062L37.7244 41.6182Z" fill="#79B575"/>
<path d="M37.7644 41.8761L37.7937 42.0654L38.6244 41.2828L38.7311 40.7908L37.7644 41.8761Z" fill="#79B473"/>
<path d="M37.3403 41.7441L37.439 42.0107L37.7243 41.6187L37.6577 41.1694L37.3403 41.7441Z" fill="#7EC067"/>
<path d="M37.4391 42.0104L37.4991 42.1731L37.7644 41.8758L37.7244 41.6184L37.4391 42.0104Z" fill="#7EBF66"/>
<path d="M37.499 42.1736L37.5444 42.3003L37.7924 42.0656L37.7644 41.8763L37.499 42.1736Z" fill="#7EBF66"/>
<path d="M37.2338 41.9385L37.3364 42.1505L37.4391 42.0105L37.3404 41.7438L37.2338 41.9385Z" fill="#7EC065"/>
<path d="M37.3364 42.1508L37.4004 42.2842L37.4991 42.1735L37.4378 42.0108L37.3364 42.1508Z" fill="#7DBF65"/>
<path d="M37.4004 42.2841L37.4511 42.3881L37.5444 42.3001L37.4991 42.1734L37.4004 42.2841Z" fill="#7DBF64"/>
<path d="M38.6245 41.2821L38.5192 41.7688L38.8512 41.5248L39.0658 40.8661L38.6245 41.2821Z" fill="#97AC6C"/>
<path d="M38.519 41.7693L38.3964 42.3333L38.6204 42.2319L38.851 41.5239L38.519 41.7693Z" fill="#95AA6E"/>
<path d="M37.7925 42.0657L37.8245 42.2817L38.5178 41.7697L38.6245 41.2817L37.7925 42.0657Z" fill="#9BAB6D"/>
<path d="M37.8245 42.2817L37.8685 42.5724L38.3951 42.3337L38.5178 41.7697L37.8245 42.2817Z" fill="#9BAA6D"/>
<path d="M37.5444 42.2996L37.5978 42.449L37.8258 42.281L37.7924 42.065L37.5444 42.2996Z" fill="#9DAF68"/>
<path d="M37.5978 42.4485L37.6764 42.6592L37.8684 42.5725L37.8244 42.2818L37.5978 42.4485Z" fill="#9DAF68"/>
<path d="M37.4512 42.3885L37.5112 42.5138L37.5992 42.4485L37.5445 42.2991L37.4512 42.3885Z" fill="#9DB068"/>
<path d="M37.5111 42.5132L37.5991 42.6946L37.6764 42.6599L37.5991 42.4479L37.5111 42.5132Z" fill="#9DB068"/>
<path d="M38.3964 42.3333L38.3191 42.7L38.4791 42.664L38.6191 42.232L38.3964 42.3333Z" fill="#80AF68"/>
<path d="M37.8698 42.5721L37.9018 42.7894L38.3191 42.6988L38.3964 42.3334L37.8698 42.5721Z" fill="#82B069"/>
<path d="M37.6764 42.6597L37.7377 42.8251L37.9017 42.7891L37.8697 42.5717L37.6764 42.6597Z" fill="#83B167"/>
<path d="M37.5978 42.6945L37.6671 42.8412L37.7364 42.8252L37.6764 42.6599L37.5978 42.6945Z" fill="#83B166"/>
<path d="M38.3177 42.6993L38.1964 43.258L38.2764 43.2833L38.4791 42.6647L38.3177 42.6993Z" fill="#88B262"/>
<path d="M37.9017 42.7893L37.9617 43.18L38.1964 43.2573L38.3177 42.7L37.9017 42.7893Z" fill="#89B262"/>
<path d="M37.7377 42.8253L37.8537 43.1426L37.9617 43.1799L37.9017 42.7893L37.7377 42.8253Z" fill="#88B262"/>
<path d="M37.6683 42.8409L37.8057 43.1276L37.8537 43.1436L37.7377 42.8249L37.6683 42.8409Z" fill="#88B262"/>
<path d="M38.1564 43.4445L38.2124 43.4818L38.2764 43.2831L38.1977 43.2578L38.1564 43.4445Z" fill="#86AF66"/>
<path d="M37.9845 43.3281L38.1565 43.4441L38.1965 43.2574L37.9618 43.1788L37.9845 43.3281Z" fill="#86AF66"/>
<path d="M37.9018 43.2728L37.9844 43.3275L37.9618 43.1795L37.8538 43.1435L37.9018 43.2728Z" fill="#86AF65"/>
<path d="M37.863 43.2477L37.9017 43.2731L37.8537 43.1437L37.8057 43.1277L37.863 43.2477Z" fill="#86AF65"/>
<path d="M38.1097 43.6641L38.1391 43.7081L38.2124 43.4815L38.1564 43.4441L38.1097 43.6641Z" fill="#89AE62"/>
<path d="M38.0538 43.9233V43.9686L38.1392 43.7086L38.1098 43.6646L38.0538 43.9233Z" fill="#89AE62"/>
<path d="M38.0138 43.5176L38.1098 43.6643L38.1565 43.4443L37.9845 43.3283L38.0138 43.5176Z" fill="#89AE62"/>
<path d="M38.0418 43.7061L37.1831 43.8368L38.0524 43.8261L38.0538 43.9235L38.1098 43.6648L38.0138 43.5181L38.0418 43.7061Z" fill="#89AE62"/>
<path d="M38.0164 44.0804L38.0524 43.9684V43.923L38.0311 44.0204L37.1818 43.8364L38.0164 44.0804Z" fill="#89AE62"/>
<path d="M37.1818 43.8369L38.0311 44.0209L38.0524 43.9235L38.0511 43.8262L37.1818 43.8369Z" fill="#89AE62"/>
<path d="M37.9644 43.4421L38.0137 43.5181L37.9844 43.3287L37.9017 43.2727L37.9644 43.4421Z" fill="#89AE62"/>
<path d="M37.9991 43.5369L37.1818 43.8369L38.0404 43.7062L38.0138 43.5182L37.9644 43.4422L37.9991 43.5369Z" fill="#89AE62"/>
<path d="M37.9404 43.4072L37.9644 43.4419L37.9017 43.2726L37.863 43.2472L37.9404 43.4072Z" fill="#89AE62"/>
<path d="M37.9656 43.4601L37.1816 43.8374L37.999 43.5374L37.9643 43.4414L37.9403 43.4067L37.9656 43.4601Z" fill="#89AE62"/>
<path d="M38.0084 44.1069L38.0151 44.0869L38.0164 44.0803L37.1818 43.8376L38.0084 44.1069Z" fill="#77B369"/>
<path d="M34.7884 39.8398L33.7164 38.6358L33.035 37.2185L33.707 36.8945L34.7884 39.8398Z" fill="#CF866A"/>
<path d="M35.6778 39.7184L33.8925 36.8064L34.6031 36.4651L35.4525 38.2304L35.6778 39.7184Z" fill="#C8AA4C"/>
<path d="M35.8817 41.069L34.787 39.8396L33.7057 36.8943L33.891 36.8063L35.6764 39.7183L35.8817 41.069Z" fill="#B7964B"/>
<path d="M35.2151 41.0043L34.6018 40.4776L33.7151 38.6363L34.7871 39.8403L35.2151 41.0043Z" fill="#B59774"/>
<path d="M35.215 41.0049L35.971 41.6516L35.8817 41.0689L34.7883 39.8396L35.215 41.0049Z" fill="#AB9C68"/>
<path d="M36.7898 41.5337L35.6765 39.7177L35.4512 38.231L36.8672 41.1764L36.7898 41.5337Z" fill="#EFAF25"/>
<path d="M35.8817 41.0685L36.6924 41.9805L36.7897 41.5338L35.6764 39.7178L35.8817 41.0685Z" fill="#EAA929"/>
<path d="M36.791 41.5341L36.9403 41.7767L37.027 41.5074L36.8683 41.1767L36.791 41.5341Z" fill="#F5A52E"/>
<path d="M36.6937 41.9805L36.8257 42.1285L36.9404 41.7765L36.7911 41.5339L36.6937 41.9805Z" fill="#F4A42D"/>
<path d="M35.9712 41.6517L36.6405 42.2263L36.6938 41.981L35.8818 41.069L35.9712 41.6517Z" fill="#E8AC33"/>
<path d="M36.6404 42.2265L36.759 42.3279L36.8257 42.1279L36.6937 41.9799L36.6404 42.2265Z" fill="#ECA934"/>
<path d="M34.9884 41.282L35.427 41.5834L35.215 41.0047L34.6017 40.478L34.9884 41.282Z" fill="#E4953C"/>
<path d="M35.4271 41.5833L36.0218 41.99L35.9711 41.6513L35.2151 41.0047L35.4271 41.5833Z" fill="#E19737"/>
<path d="M36.0231 41.9901L36.6057 42.3901L36.6417 42.2261L35.9711 41.6515L36.0231 41.9901Z" fill="#F39A22"/>
<path d="M36.6058 42.3897L36.7152 42.4644L36.7592 42.3284L36.6405 42.227L36.6058 42.3897Z" fill="#F49A23"/>
<path d="M37.1791 43.8359L37.1801 43.8369V43.8359H37.1791Z" fill="#ECA533"/>
<path d="M37.1804 43.8369H37.1814L37.1804 43.8359V43.8369Z" fill="#EBA434"/>
<path d="M37.1791 43.8371V43.8381L37.1801 43.8371H37.1791Z" fill="#C1A261"/>
<path d="M37.1777 43.8381H37.1787V43.8371L37.1777 43.8381Z" fill="#C1A261"/>
<path d="M37.1791 43.8369H37.1801L37.1791 43.8359V43.8369Z" fill="#C1A261"/>
<path d="M35.2324 41.7909L35.5711 41.9749L35.4271 41.5829L34.9871 41.2815L35.2324 41.7909Z" fill="#D97C56"/>
<path d="M35.5711 41.9745L36.0591 42.2399L36.0218 41.9905L35.4271 41.5839L35.5711 41.9745Z" fill="#D77D54"/>
<path d="M36.0604 42.2397L36.5777 42.5197L36.6057 42.3903L36.0231 41.9903L36.0604 42.2397Z" fill="#DF7E50"/>
<path d="M36.5763 42.5193L36.6776 42.574L36.715 42.4646L36.6056 42.39L36.5763 42.5193Z" fill="#E07E50"/>
<path d="M35.4351 42.2097L35.6964 42.3124L35.5724 41.975L35.2338 41.791L35.4351 42.2097Z" fill="#D97D55"/>
<path d="M35.6965 42.3129L36.0952 42.4716L36.0605 42.2396L35.5712 41.9742L35.6965 42.3129Z" fill="#D87C54"/>
<path d="M36.0951 42.4712L36.5484 42.6512L36.5778 42.5192L36.0604 42.2392L36.0951 42.4712Z" fill="#DB7D53"/>
<path d="M36.5483 42.6513L36.6417 42.6886L36.679 42.5739L36.5777 42.5193L36.5483 42.6513Z" fill="#DB7D53"/>
<path d="M37.1671 43.8321L37.1734 43.8346L37.1684 43.8321H37.1671Z" fill="#DAA92C"/>
<path d="M37.176 43.8384L37.175 43.8394L37.177 43.8384H37.176Z" fill="#CBA83F"/>
<path d="M37.1764 43.8371V43.8381H37.1774L37.1784 43.8371H37.1764Z" fill="#CBA83F"/>
<path d="M37.1589 43.8455L37.1564 43.8492L37.1589 43.848L37.1614 43.8442L37.1589 43.8455Z" fill="#CBA83F"/>
<path d="M37.1628 43.8397L37.1591 43.8459L37.1616 43.8447L37.1641 43.8397H37.1628Z" fill="#CBA83F"/>
<path d="M37.1631 43.8392H37.1641L37.1651 43.8372L37.1631 43.8392Z" fill="#CBA83F"/>
<path d="M37.1616 43.8444L37.1591 43.8481L37.1703 43.8419L37.1716 43.8406L37.1616 43.8444Z" fill="#CBA83F"/>
<path d="M37.1642 43.8396L37.1617 43.8446L37.1717 43.8409L37.173 43.8384L37.1642 43.8396Z" fill="#CBA83F"/>
<path d="M37.1644 43.8369H37.1719L37.1732 43.8357L37.1669 43.8332L37.1644 43.8369Z" fill="#CBA83F"/>
<path d="M37.1671 43.8333L37.1734 43.8358V43.8346L37.1671 43.8333Z" fill="#CBA83F"/>
<path d="M37.1643 43.8369L37.1631 43.8394L37.1718 43.8381V43.8369H37.1643Z" fill="#CBA83F"/>
<path d="M37.1724 43.8405L37.1711 43.8418L37.1761 43.8393L37.1774 43.838L37.1724 43.8405Z" fill="#CBA83F"/>
<path d="M37.1737 43.8381L37.1725 43.8406L37.1775 43.8381H37.1737Z" fill="#CBA83F"/>
<path d="M37.1751 43.8357L37.1738 43.8369H37.1788V43.8357H37.1751Z" fill="#CBA83F"/>
<path d="M37.175 43.8357H37.178L37.175 43.8347V43.8357Z" fill="#CBA83F"/>
<path d="M37.1738 43.8369V43.8381L37.1776 43.8369H37.1788H37.1738Z" fill="#CBA83F"/>
<path d="M35.6538 42.6657L35.8378 42.7003L35.6952 42.3123L35.4338 42.2097L35.6538 42.6657Z" fill="#D39B3B"/>
<path d="M35.7765 42.9213L35.9205 42.9266L35.8378 42.7L35.6538 42.6653L35.7765 42.9213Z" fill="#D39B3A"/>
<path d="M35.8377 42.7005L36.1391 42.7565L36.0951 42.4711L35.6964 42.3125L35.8377 42.7005Z" fill="#D39B3B"/>
<path d="M35.9204 42.9261L36.1658 42.9341L36.1391 42.7567L35.8378 42.7007L35.9204 42.9261Z" fill="#D39B3A"/>
<path d="M36.1391 42.7568L36.5111 42.8262L36.5484 42.6515L36.0951 42.4715L36.1391 42.7568Z" fill="#D49B3A"/>
<path d="M36.1657 42.9345L36.4844 42.9438L36.511 42.8265L36.139 42.7572L36.1657 42.9345Z" fill="#D49B3A"/>
<path d="M36.5111 42.8265L36.5911 42.8425L36.6418 42.6879L36.5484 42.6519L36.5111 42.8265Z" fill="#D49B3A"/>
<path d="M36.4844 42.9439L36.5577 42.9465L36.591 42.8425L36.511 42.8265L36.4844 42.9439Z" fill="#D49B3A"/>
<path d="M36.1098 43.6149L36.1578 43.5735L35.9205 42.9255L35.7765 42.9215L36.1098 43.6149Z" fill="#D29840"/>
<path d="M36.1577 43.5729L36.2497 43.4929L36.1644 42.9342L35.9204 42.9262L36.1577 43.5729Z" fill="#D29740"/>
<path d="M36.2511 43.4924L36.3938 43.3684L36.4858 42.9444L36.1658 42.9338L36.2511 43.4924Z" fill="#D29840"/>
<path d="M36.3937 43.3689L36.431 43.3369L36.5577 42.9462L36.4843 42.9436L36.3937 43.3689Z" fill="#D29840"/>
<path d="M36.1097 43.6149L36.2231 43.8496L36.2431 43.8043L36.1577 43.5736L36.1097 43.6149Z" fill="#CE9843"/>
<path d="M36.1578 43.5729L36.2432 43.8049L36.2832 43.7129L36.2498 43.4929L36.1578 43.5729Z" fill="#CE9843"/>
<path d="M36.2511 43.4925L36.2844 43.7139L36.3524 43.5632L36.3938 43.3685L36.2511 43.4925Z" fill="#CE9843"/>
<path d="M36.3938 43.3689L36.3524 43.5636L36.3698 43.5223L36.4311 43.3369L36.3938 43.3689Z" fill="#CE9843"/>
<path d="M36.223 43.8489L36.2537 43.9142L36.267 43.8675L36.243 43.8049L36.223 43.8489Z" fill="#D49D3A"/>
<path d="M36.243 43.8045L36.267 43.8685L36.2937 43.7765L36.2844 43.7139L36.243 43.8045Z" fill="#D49D3A"/>
<path d="M36.2844 43.7133L36.2938 43.7773L36.3391 43.6227L36.3511 43.5627L36.2844 43.7133Z" fill="#D49D3A"/>
<path d="M36.3511 43.5633L36.3378 43.622L36.3458 43.594L37.1671 43.8326L36.3551 43.5673L36.3684 43.522L36.3511 43.5633Z" fill="#D49D3A"/>
<path d="M36.2538 43.9137L36.3138 44.0391V43.9964L36.2671 43.8684L36.2538 43.9137Z" fill="#CF9D41"/>
<path d="M36.2671 43.8681L36.3138 43.9961L36.3124 43.9054L36.2938 43.7774L36.2671 43.8681Z" fill="#CF9D41"/>
<path d="M36.3657 44.1369L36.3137 43.9969V44.0396L36.3977 44.2142L37.1564 43.8489L37.1591 43.8449L36.3657 44.1369Z" fill="#CF9D41"/>
<path d="M36.3231 43.9676L36.3137 43.905L36.3151 43.997L36.3657 44.137L37.1591 43.845L37.1631 43.8396L36.3231 43.9676Z" fill="#CF9D41"/>
<path d="M36.2938 43.7769L36.3125 43.9049L36.3112 43.8476L37.1645 43.8369L37.1672 43.8329L36.3325 43.6529L36.3378 43.6222L36.2938 43.7769Z" fill="#CF9D41"/>
<path d="M36.3377 43.6221L36.3311 43.6528L37.1671 43.8328L36.3457 43.5928L36.3377 43.6221Z" fill="#CF9D41"/>
<path d="M36.3125 43.8477L36.3138 43.905L36.3232 43.9677L37.1632 43.8397L37.1658 43.837L36.3125 43.8477Z" fill="#CF9D41"/>
<path d="M37.1791 43.8357H37.1801L37.1791 43.8347V43.8357Z" fill="#CA9E40"/>
<path d="M37.1791 43.8347L37.1801 43.8357V43.8347H37.1791Z" fill="#CA9E40"/>
<path d="M37.1804 43.8359L37.1814 43.8369L37.1804 43.8349V43.8359Z" fill="#D79B3E"/>
<path d="M37.1804 43.835L37.1814 43.837V43.836L37.1804 43.835Z" fill="#D79B3E"/>
<path d="M36.9391 41.7765L37.1404 42.1058L37.2338 41.9392L37.0271 41.5072L36.9391 41.7765Z" fill="#DCAA2B"/>
<path d="M36.8257 42.1281L37.0124 42.3387L37.1417 42.1067L36.9404 41.7761L36.8257 42.1281Z" fill="#DBAA2A"/>
<path d="M36.759 42.3285L36.935 42.4791L37.0124 42.3391L36.8244 42.1285L36.759 42.3285Z" fill="#D9AB2C"/>
<path d="M37.1404 42.1065L37.2444 42.2759L37.3364 42.1505L37.2324 41.9385L37.1404 42.1065Z" fill="#CDA93C"/>
<path d="M37.2457 42.2757L37.3111 42.3837L37.4004 42.2837L37.3364 42.1503L37.2457 42.2757Z" fill="#CDA93C"/>
<path d="M37.311 42.3837L37.3644 42.4703L37.4497 42.389L37.4004 42.2837L37.311 42.3837Z" fill="#CDA93C"/>
<path d="M37.0125 42.3393L37.1138 42.4526L37.2458 42.2753L37.1405 42.106L37.0125 42.3393Z" fill="#CDA93C"/>
<path d="M37.1151 42.4533L37.1818 42.5293L37.3124 42.384L37.2458 42.276L37.1151 42.4533Z" fill="#CDA93C"/>
<path d="M37.1818 42.5289L37.2364 42.5902L37.3644 42.4702L37.3111 42.3835L37.1818 42.5289Z" fill="#CDA93C"/>
<path d="M36.9351 42.4797L37.0337 42.5637L37.1137 42.4531L37.0124 42.3397L36.9351 42.4797Z" fill="#CCA93B"/>
<path d="M37.0337 42.5636L37.099 42.621L37.1817 42.529L37.1137 42.453L37.0337 42.5636Z" fill="#CCA93B"/>
<path d="M37.1003 42.6213L37.155 42.6666L37.2377 42.5906L37.1817 42.5293L37.1003 42.6213Z" fill="#CCA93B"/>
<path d="M36.7151 42.4641L36.8818 42.5787L36.9364 42.4801L36.7591 42.3281L36.7151 42.4641Z" fill="#DBA627"/>
<path d="M36.8817 42.5781L36.9764 42.6434L37.0337 42.5634L36.9364 42.4794L36.8817 42.5781Z" fill="#D8A62C"/>
<path d="M36.9764 42.6429L37.0418 42.6869L37.1004 42.6216L37.0338 42.5642L36.9764 42.6429Z" fill="#D8A62C"/>
<path d="M37.0417 42.6873L37.0951 42.7246L37.1551 42.6673L37.1004 42.6219L37.0417 42.6873Z" fill="#D8A62C"/>
<path d="M37.3644 42.4701L37.4284 42.5741L37.511 42.5128L37.451 42.3888L37.3644 42.4701Z" fill="#D5A13D"/>
<path d="M37.2365 42.5901L37.3031 42.6661L37.4271 42.5741L37.3631 42.4701L37.2365 42.5901Z" fill="#D5A13D"/>
<path d="M37.4283 42.5744L37.523 42.7278L37.599 42.6944L37.511 42.5131L37.4283 42.5744Z" fill="#D5A13D"/>
<path d="M37.3044 42.6657L37.4058 42.7804L37.5231 42.7284L37.4284 42.5751L37.3044 42.6657Z" fill="#D5A13D"/>
<path d="M37.1537 42.6669L37.2217 42.7256L37.303 42.6656L37.2364 42.5896L37.1537 42.6669Z" fill="#D5A13D"/>
<path d="M37.223 42.7257L37.3284 42.8164L37.407 42.7804L37.3044 42.6657L37.223 42.7257Z" fill="#D5A13D"/>
<path d="M37.0938 42.7244L37.1617 42.7698L37.2217 42.7258L37.1537 42.6671L37.0938 42.7244Z" fill="#D99F37"/>
<path d="M37.1631 42.7701L37.2684 42.8434L37.3284 42.8167L37.2231 42.7261L37.1631 42.7701Z" fill="#D99F37"/>
<path d="M36.6791 42.5745L36.8364 42.6598L36.8817 42.5785L36.7151 42.4638L36.6791 42.5745Z" fill="#D59E36"/>
<path d="M36.8364 42.6597L36.9271 42.7103L36.9764 42.6423L36.8818 42.5783L36.8364 42.6597Z" fill="#D39D38"/>
<path d="M36.927 42.7101L36.991 42.7434L37.0417 42.6874L36.9763 42.6434L36.927 42.7101Z" fill="#D39D38"/>
<path d="M36.9911 42.7437L37.0444 42.7731L37.0938 42.7251L37.0418 42.6877L36.9911 42.7437Z" fill="#D39D38"/>
<path d="M36.6417 42.6885L36.7897 42.7458L36.8364 42.6592L36.6791 42.5752L36.6417 42.6885Z" fill="#D49E37"/>
<path d="M36.7898 42.7461L36.8765 42.7808L36.9285 42.7101L36.8365 42.6594L36.7898 42.7461Z" fill="#D39D38"/>
<path d="M36.8751 42.7809L36.9351 42.8049L36.9898 42.7436L36.9271 42.7103L36.8751 42.7809Z" fill="#D39D38"/>
<path d="M36.9351 42.8048L36.9871 42.8248L37.0431 42.7728L36.9897 42.7435L36.9351 42.8048Z" fill="#D39D38"/>
<path d="M37.0444 42.7725L37.1098 42.8085L37.1631 42.7698L37.0951 42.7245L37.0444 42.7725Z" fill="#D49B3D"/>
<path d="M37.1097 42.8085L37.2164 42.8658L37.2684 42.8432L37.1631 42.7698L37.1097 42.8085Z" fill="#D49B3D"/>
<path d="M36.9871 42.8253L37.0524 42.8506L37.1097 42.8079L37.0431 42.7719L36.9871 42.8253Z" fill="#D49B3D"/>
<path d="M37.0524 42.8505L37.159 42.8918L37.2164 42.8665L37.1097 42.8078L37.0524 42.8505Z" fill="#D49B3D"/>
<path d="M37.5231 42.7281L37.6004 42.8547L37.6684 42.8414L37.5991 42.6947L37.5231 42.7281Z" fill="#CDA23D"/>
<path d="M37.4058 42.7808L37.4938 42.8782L37.6004 42.8555L37.5218 42.7275L37.4058 42.7808Z" fill="#CDA23D"/>
<path d="M37.3285 42.8168L37.4192 42.8955L37.4938 42.8782L37.4058 42.7808L37.3285 42.8168Z" fill="#CCA23E"/>
<path d="M37.6005 42.8553L37.7578 43.1127L37.8058 43.1273L37.6671 42.8407L37.6005 42.8553Z" fill="#CFA33B"/>
<path d="M37.4938 42.8781L37.6778 43.0848L37.7578 43.1128L37.6004 42.8555L37.4938 42.8781Z" fill="#CFA33B"/>
<path d="M37.4191 42.8949L37.6177 43.0656L37.6777 43.0842L37.4937 42.8776L37.4191 42.8949Z" fill="#CFA33B"/>
<path d="M37.8245 43.2213L37.8631 43.2479L37.8058 43.1279L37.7578 43.1119L37.8245 43.2213Z" fill="#CEA13D"/>
<path d="M37.7591 43.1769L37.8244 43.2209L37.7577 43.1116L37.6777 43.0849L37.7591 43.1769Z" fill="#CEA13D"/>
<path d="M37.7083 43.1433L37.759 43.1766L37.6777 43.0846L37.6177 43.0646L37.7083 43.1433Z" fill="#CEA13D"/>
<path d="M37.919 43.3736L37.9404 43.407L37.8644 43.2483L37.8257 43.2216L37.919 43.3736Z" fill="#CFA13C"/>
<path d="M37.8311 43.2585L37.1818 43.8372L37.9098 43.3585L37.9191 43.3732L37.8244 43.2212L37.7591 43.1772L37.8311 43.2585Z" fill="#CFA13C"/>
<path d="M37.9231 43.3821L37.1818 43.8368L37.9644 43.4608L37.9404 43.4075L37.9178 43.3741L37.9231 43.3821Z" fill="#CFA13C"/>
<path d="M37.1818 43.8369L37.9231 43.3822L37.9191 43.3742L37.9084 43.3582L37.1818 43.8369Z" fill="#CFA13C"/>
<path d="M37.7484 43.1769L37.1818 43.8369L37.8311 43.2582L37.7591 43.1769L37.7084 43.1436L37.7484 43.1769Z" fill="#CFA13C"/>
<path d="M37.2684 42.8432L37.3618 42.9072L37.4191 42.8952L37.3284 42.8166L37.2684 42.8432Z" fill="#CEA23B"/>
<path d="M37.3617 42.9069L37.5684 43.0482L37.619 43.0656L37.419 42.8949L37.3617 42.9069Z" fill="#CFA23B"/>
<path d="M37.1831 43.8285L37.1818 43.8299V43.8352V43.8365L37.1884 43.8192L37.1831 43.8285Z" fill="#CFA23B"/>
<path d="M37.6604 43.1121L37.2404 43.7267L37.1871 43.8187L37.1818 43.8374L37.6671 43.1161L37.7084 43.1427L37.6191 43.0654L37.5684 43.0481L37.6604 43.1121Z" fill="#CFA13B"/>
<path d="M37.1818 43.8369L37.7484 43.1769L37.7084 43.1436L37.6684 43.1156L37.1818 43.8369Z" fill="#CFA13B"/>
<path d="M37.1922 43.8036L37.1912 43.8046L37.1932 43.8026L37.1922 43.8036Z" fill="#CFA23B"/>
<path d="M37.2137 43.7637L37.1937 43.801L37.2191 43.757L37.2137 43.7637Z" fill="#CFA13B"/>
<path d="M37.1936 43.8L37.1924 43.8037L37.1936 43.8012L37.1949 43.7987L37.1936 43.8Z" fill="#CFA13B"/>
<path d="M37.2084 43.7733L37.1951 43.7986L37.1937 43.8013L37.2151 43.7639L37.2084 43.7733Z" fill="#CFA13C"/>
<path d="M37.1937 43.7997L37.195 43.7984L37.1962 43.7947L37.1937 43.7997Z" fill="#CFA13B"/>
<path d="M37.2004 43.7865L37.1964 43.7945L37.1951 43.7985L37.2084 43.7731L37.2004 43.7865Z" fill="#CEA13B"/>
<path d="M37.1911 43.8045L37.1831 43.8285L37.1871 43.8192L37.1938 43.8018L37.1911 43.8045Z" fill="#CFA13B"/>
<path d="M37.2191 43.7576L37.1938 43.8016L37.1885 43.819L37.2405 43.727L37.2191 43.7576Z" fill="#CFA13C"/>
<path d="M37.1804 43.8323L37.1817 43.8361V43.8298L37.1804 43.8323Z" fill="#CEA13D"/>
<path d="M37.2164 42.8661L37.3124 42.9181L37.3618 42.9074L37.2684 42.8434L37.2164 42.8661Z" fill="#CCA13E"/>
<path d="M37.3125 42.9177L37.5298 43.035L37.5685 43.0483L37.3618 42.907L37.3125 42.9177Z" fill="#CDA13D"/>
<path d="M37.5897 43.0689L37.3297 43.5489L37.6004 43.0755L37.2137 43.7635L37.2191 43.7582L37.6071 43.0782L37.2404 43.7262L37.6604 43.1115L37.5684 43.0489L37.5297 43.0355L37.5897 43.0689Z" fill="#CDA03D"/>
<path d="M37.3297 43.5489L37.2084 43.7729L37.215 43.7636L37.6004 43.0756L37.3297 43.5489Z" fill="#CDA03D"/>
<path d="M37.1591 42.8925L37.2537 42.9312L37.3124 42.9178L37.2164 42.8658L37.1591 42.8925Z" fill="#CCA03D"/>
<path d="M37.2538 42.9309L37.4631 43.0136L37.5298 43.0349L37.3125 42.9176L37.2538 42.9309Z" fill="#CCA03D"/>
<path d="M37.4991 43.0281L37.2097 43.7574L37.3284 43.5494L37.5897 43.0694L37.5297 43.0348L37.4617 43.0134L37.4991 43.0281Z" fill="#CCA03D"/>
<path d="M37.2111 43.7577L37.2004 43.787L37.2084 43.7737L37.3298 43.5483L37.2111 43.7577Z" fill="#CCA03D"/>
<path d="M37.2191 43.7577L37.2404 43.727L37.6071 43.079L37.2191 43.7577Z" fill="#CDA03D"/>
<path d="M37.1777 43.8357H37.1787L37.1777 43.8347V43.8357Z" fill="#CEA731"/>
<path d="M37.1777 43.8347L37.1787 43.8357V43.8347H37.1777Z" fill="#CDA732"/>
<path d="M37.1685 43.8309L37.1747 43.8334L37.1697 43.8296L37.1685 43.8309Z" fill="#CDA632"/>
<path d="M37.1697 43.83L37.1759 43.8337L37.1709 43.8287L37.1697 43.83Z" fill="#CDA632"/>
<path d="M37.1711 43.8288L37.1761 43.8325L37.1711 43.8275V43.8288Z" fill="#CDA632"/>
<path d="M37.1711 43.8276L37.1774 43.8326V43.8314L37.1724 43.8264L37.1711 43.8276Z" fill="#CDA632"/>
<path d="M37.1772 43.8357V43.8347L37.1752 43.8337L37.1772 43.8357Z" fill="#CEA631"/>
<path d="M37.1764 43.8336L37.1784 43.8346L37.1764 43.8326V43.8336Z" fill="#CDA632"/>
<path d="M37.1764 43.8326L37.1794 43.8346L37.1774 43.8326H37.1764Z" fill="#CDA632"/>
<path d="M37.1671 43.832H37.1681V43.831L37.1671 43.832Z" fill="#D4AB2A"/>
<path d="M37.1685 43.8321L37.1735 43.8346L37.1747 43.8333L37.1685 43.8321Z" fill="#D4AB2A"/>
<path d="M37.175 43.8347L37.178 43.8357L37.176 43.8337L37.175 43.8347Z" fill="#D4AB2A"/>
<path d="M37.1791 43.8336V43.8346H37.1801V43.8336V43.8326L37.1791 43.8336Z" fill="#D4A631"/>
<path d="M37.1724 43.8264L37.1774 43.8314L37.1736 43.8252L37.1724 43.8264Z" fill="#D4A631"/>
<path d="M37.1738 43.8253L37.1776 43.8315L37.1788 43.829L37.1751 43.8215L37.1738 43.8253Z" fill="#D4A631"/>
<path d="M37.1786 43.8345V43.8335L37.1766 43.8315L37.1786 43.8345Z" fill="#D4A631"/>
<path d="M37.1764 43.8309L37.1789 43.8334L37.1801 43.8321L37.1776 43.8284L37.1764 43.8309Z" fill="#D4A631"/>
<path d="M36.5911 42.8421L36.7231 42.8661L36.7884 42.7461L36.6417 42.6888L36.5911 42.8421Z" fill="#D1A62E"/>
<path d="M36.5577 42.9464L36.6764 42.9504L36.7231 42.8664L36.5911 42.8424L36.5577 42.9464Z" fill="#D1A62E"/>
<path d="M36.7231 42.8661L36.8018 42.8821L36.8751 42.7807L36.7885 42.7461L36.7231 42.8661Z" fill="#D1A62E"/>
<path d="M36.8031 42.8817L36.8591 42.891L36.9364 42.8043L36.8764 42.7803L36.8031 42.8817Z" fill="#D1A62E"/>
<path d="M36.8591 42.8913L36.9071 42.9006L36.9871 42.826L36.9365 42.8046L36.8591 42.8913Z" fill="#D1A62E"/>
<path d="M36.6764 42.95L36.7511 42.9526L36.8017 42.882L36.7231 42.866L36.6764 42.95Z" fill="#D1A62E"/>
<path d="M36.7511 42.9523L36.8031 42.955L36.8591 42.891L36.8031 42.8816L36.7511 42.9523Z" fill="#D1A62E"/>
<path d="M36.8031 42.9548L36.8484 42.9562L36.9071 42.9015L36.8591 42.8908L36.8031 42.9548Z" fill="#D1A62E"/>
<path d="M36.431 43.3364L36.4964 43.2804L36.6777 42.9498L36.5577 42.9471L36.431 43.3364Z" fill="#D0A530"/>
<path d="M36.4951 43.28L36.5378 43.2427L36.7511 42.952L36.6765 42.9507L36.4951 43.28Z" fill="#D0A530"/>
<path d="M36.5391 43.2429L36.5711 43.2149L36.8031 42.9549L36.7511 42.9523L36.5391 43.2429Z" fill="#D0A530"/>
<path d="M36.5712 43.2153L36.6032 43.186L36.8485 42.9567L36.8032 42.9553L36.5712 43.2153Z" fill="#D0A530"/>
<path d="M36.4311 43.3365L36.3698 43.5232L36.3898 43.4805L37.1698 43.8312L36.4204 43.4178L36.4964 43.2805L36.4311 43.3365Z" fill="#CFA531"/>
<path d="M36.4951 43.2801L36.4191 43.4188L37.1697 43.8295L36.4791 43.3241L36.5377 43.2428L36.4951 43.2801Z" fill="#CFA531"/>
<path d="M36.5391 43.2429L36.4805 43.3242L37.1698 43.8282L37.1711 43.8269L36.5325 43.2589L36.5711 43.2149L36.5391 43.2429Z" fill="#CFA531"/>
<path d="M36.5711 43.2153L36.5325 43.2579L37.1711 43.8273L37.1725 43.8259L36.5858 43.2046L36.6031 43.1859L36.5711 43.2153Z" fill="#CFA531"/>
<path d="M37.1697 43.8287V43.8297L37.1707 43.8287H37.1697Z" fill="#CFA531"/>
<path d="M37.1697 43.8285H37.1707V43.8275L37.1697 43.8285Z" fill="#CFA531"/>
<path d="M36.3698 43.5225L36.3551 43.5665L37.1684 43.8318L36.3884 43.4798L36.3698 43.5225Z" fill="#D1A72E"/>
<path d="M36.9071 42.9008L36.9698 42.9128L37.0524 42.8502L36.9871 42.8248L36.9071 42.9008Z" fill="#D1A630"/>
<path d="M36.9697 42.9129L37.0724 42.9315L37.1591 42.8929L37.0524 42.8502L36.9697 42.9129Z" fill="#D1A630"/>
<path d="M36.8484 42.9559L36.9084 42.9573L36.9697 42.9133L36.9071 42.9013L36.8484 42.9559Z" fill="#D1A630"/>
<path d="M36.9084 42.9573L37.0084 42.9613L37.0724 42.932L36.9698 42.9133L36.9084 42.9573Z" fill="#D1A630"/>
<path d="M36.6031 43.1865L36.6111 43.1799L37.1725 43.8252V43.8239L36.6658 43.1359L36.9085 42.9572L36.8485 42.9559L36.6031 43.1865Z" fill="#D1A530"/>
<path d="M36.6658 43.1361L37.1724 43.8241L37.1751 43.8201L36.8244 43.0441L37.0084 42.9614L36.9084 42.9574L36.6658 43.1361Z" fill="#D1A530"/>
<path d="M37.1724 43.8252V43.8262L37.1734 43.8252L37.1724 43.8242V43.8252Z" fill="#D1A530"/>
<path d="M37.1724 43.8237L37.1736 43.825L37.1749 43.8212V43.82L37.1724 43.8237Z" fill="#D1A530"/>
<path d="M36.6031 43.1865L36.5858 43.2039L37.1725 43.8265L36.6111 43.1799L36.6031 43.1865Z" fill="#D0A530"/>
<path d="M37.1911 43.8045L37.1818 43.8218L37.1924 43.8032L37.1911 43.8045Z" fill="#CFA82F"/>
<path d="M37.1818 43.8213L37.1924 43.804L37.1938 43.8L37.1818 43.8213Z" fill="#CFA82F"/>
<path d="M37.1844 43.8069L37.1831 43.8189L37.1938 43.8002L37.1964 43.7949L37.1991 43.7882L37.1844 43.8069ZM37.1818 43.8215L37.1831 43.8202V43.8189L37.1818 43.8215Z" fill="#CFA830"/>
<path d="M37.1831 43.8111V43.8198L37.1844 43.8073L37.1831 43.8111Z" fill="#CFA830"/>
<path d="M37.1989 43.7881L37.1964 43.7943L37.2002 43.7868L37.1989 43.7881Z" fill="#CFA830"/>
<path d="M37.1818 43.8213V43.8293L37.1831 43.828L37.1911 43.804L37.1818 43.8213Z" fill="#CFA82F"/>
<path d="M37.1791 43.826L37.1801 43.825V43.824L37.1791 43.826Z" fill="#CFA830"/>
<path d="M37.175 43.8218L37.1788 43.828L37.18 43.8268L37.1788 43.818L37.175 43.8218Z" fill="#CFA830"/>
<path d="M37.1777 43.8182L37.179 43.8257L37.1802 43.8244V43.8144L37.1777 43.8182Z" fill="#CFA830"/>
<path d="M37.1818 43.8123V43.821L37.183 43.8198V43.811L37.1818 43.8123Z" fill="#CFA830"/>
<path d="M37.1777 43.8288L37.1802 43.8325V43.83L37.179 43.8263L37.1777 43.8288Z" fill="#CFA830"/>
<path d="M37.1791 43.8263L37.1803 43.8301V43.8251L37.1791 43.8263Z" fill="#CFA830"/>
<path d="M37.1804 43.824V43.825L37.1814 43.823L37.1804 43.824Z" fill="#CFA830"/>
<path d="M37.1804 43.8147V43.8235L37.1817 43.821V43.8122L37.1804 43.8147Z" fill="#CFA830"/>
<path d="M37.1804 43.8297V43.8309V43.8322L37.1817 43.8297V43.8234L37.1804 43.8297Z" fill="#CFA830"/>
<path d="M37.1804 43.8252V43.8302L37.1817 43.8227L37.1804 43.8252Z" fill="#CFA830"/>
<path d="M37.0724 42.9321L37.1671 42.9508L37.2537 42.9308L37.1591 42.8921L37.0724 42.9321Z" fill="#CFA830"/>
<path d="M37.0084 42.9607L37.1018 42.9634L37.1684 42.95L37.0738 42.9314L37.0084 42.9607Z" fill="#CFA830"/>
<path d="M37.1671 42.9501L37.3404 42.9821L37.1858 43.8008L37.2044 43.7688L37.4564 43.0114L37.2538 42.9314L37.1671 42.9501Z" fill="#CFA830"/>
<path d="M37.1018 42.9633L37.2098 42.9673L37.1831 43.8073L37.1871 43.8006L37.3405 42.9819L37.1671 42.9499L37.1018 42.9633Z" fill="#CFA830"/>
<path d="M37.2043 43.7684L37.211 43.7578L37.499 43.0284L37.4617 43.0138L37.4563 43.0111L37.2043 43.7684Z" fill="#CFA830"/>
<path d="M37.1871 43.8009L37.1844 43.8063L37.1991 43.7876L37.2044 43.7689L37.1871 43.8009Z" fill="#CFA830"/>
<path d="M37.1831 43.8072V43.8109L37.1844 43.8072L37.1869 43.8022L37.1831 43.8072Z" fill="#CFA830"/>
<path d="M37.2044 43.7684L37.1978 43.7871L37.2111 43.7578L37.2044 43.7684Z" fill="#CFA830"/>
<path d="M36.8245 43.0437L37.1751 43.8197L37.1778 43.817L36.9978 42.9877L37.1018 42.9637L37.0085 42.961L36.8245 43.0437Z" fill="#CFA830"/>
<path d="M36.9963 42.9873L37.1763 43.8167L37.1803 43.81L37.179 42.9673H37.1817V43.8087L37.183 43.8073L37.2083 42.9673L37.1003 42.9633L36.9963 42.9873Z" fill="#CFA830"/>
<path d="M37.175 43.82V43.8213L37.1788 43.8175L37.1775 43.8163L37.175 43.82Z" fill="#CFA830"/>
<path d="M37.1814 43.8086V43.8124L37.1826 43.8111V43.8074L37.1814 43.8086ZM37.1764 43.8161L37.1776 43.8174L37.1801 43.8149V43.8111L37.1764 43.8161Z" fill="#CFA830"/>
<path d="M37.1791 42.9669L37.1804 43.8109L37.1817 43.8082V42.9669H37.1791Z" fill="#CFA830"/>
<path d="M37.1804 43.8107V43.8145L37.1817 43.812V43.8082L37.1804 43.8107Z" fill="#CFA830"/>
<path d="M47.631 1.08981C47.631 1.75248 47.0924 2.29248 46.4284 2.29248C45.7644 2.29248 45.2257 1.75248 45.2257 1.08981C45.2257 0.427147 45.7644 -0.110186 46.4284 -0.110186C47.0924 -0.110186 47.631 0.427147 47.631 1.08981Z" fill="#231F20"/>
<path d="M55.2764 13.1262C55.2764 13.7875 54.7378 14.3262 54.0738 14.3262C53.4124 14.3262 52.8711 13.7875 52.8711 13.1262C52.8711 12.4622 53.4124 11.9262 54.0738 11.9262C54.7378 11.9262 55.2764 12.4622 55.2764 13.1262Z" fill="#231F20"/>
<path d="M56.3978 23.6152C56.3978 24.2792 55.8604 24.8152 55.1951 24.8152C54.5311 24.8152 53.9938 24.2792 53.9938 23.6152C53.9938 22.9485 54.5311 22.4152 55.1951 22.4152C55.8604 22.4152 56.3978 22.9485 56.3978 23.6152Z" fill="#231F20"/>
<path d="M48.8538 29.4914C48.8538 30.1527 48.3125 30.6914 47.6498 30.6914C46.9872 30.6914 46.4485 30.1527 46.4485 29.4914C46.4485 28.8247 46.9872 28.2874 47.6498 28.2874C48.3125 28.2874 48.8538 28.8247 48.8538 29.4914Z" fill="#231F20"/>
<path d="M53.8444 32.433C53.8444 33.0996 53.3071 33.6383 52.6431 33.6383C51.9804 33.6383 51.4418 33.0996 51.4418 32.433C51.4418 31.7703 51.9804 31.2303 52.6431 31.2303C53.3071 31.2303 53.8444 31.7703 53.8444 32.433Z" fill="#231F20"/>
<path d="M54.0737 40.4209C54.0737 41.0875 53.5337 41.6235 52.871 41.6235C52.2084 41.6235 51.671 41.0875 51.671 40.4209C51.671 39.7582 52.2084 39.2182 52.871 39.2182C53.5337 39.2182 54.0737 39.7582 54.0737 40.4209Z" fill="#231F20"/>
<path d="M47.3151 46.8083C47.3151 47.475 46.7778 48.011 46.1151 48.011C45.4498 48.011 44.9125 47.475 44.9125 46.8083C44.9125 46.1457 45.4498 45.6097 46.1151 45.6097C46.7778 45.6097 47.3151 46.1457 47.3151 46.8083Z" fill="#231F20"/>
<path d="M50.6911 52.1313C50.6911 52.798 50.1511 53.3313 49.4911 53.3313C48.8258 53.3313 48.2885 52.798 48.2885 52.1313C48.2885 51.47 48.8258 50.9313 49.4911 50.9313C50.1511 50.9313 50.6911 51.47 50.6911 52.1313Z" fill="#231F20"/>
<path d="M43.8404 52.1313C43.8404 52.794 43.3031 53.3313 42.6377 53.3313C41.9751 53.3313 41.4364 52.794 41.4364 52.1313C41.4364 51.4673 41.9751 50.9286 42.6377 50.9286C43.3031 50.9286 43.8404 51.4673 43.8404 52.1313Z" fill="#231F20"/>
<path d="M38.5658 58.2014C38.5658 58.8681 38.0271 59.4041 37.3618 59.4041C36.6991 59.4041 36.1631 58.8681 36.1631 58.2014C36.1631 57.5387 36.6991 56.9974 37.3618 56.9974C38.0271 56.9974 38.5658 57.5387 38.5658 58.2014Z" fill="#231F20"/>
<mask id="mask0_477_2739" style="mask-type:luminance" maskUnits="userSpaceOnUse" x="-1" y="-1" width="149" height="62">
<path d="M-0.110229 60.5573H147.976V-0.11075H-0.110229V60.5573Z" fill="white"/>
</mask>
<g mask="url(#mask0_477_2739)">
<path d="M31.4111 59.3576C31.4111 60.0203 30.8751 60.5576 30.2097 60.5576C29.5444 60.5576 29.0071 60.0203 29.0071 59.3576C29.0071 58.695 29.5444 58.155 30.2097 58.155C30.8751 58.155 31.4111 58.695 31.4111 59.3576Z" fill="#231F20"/>
</g>
<path d="M29.8684 51.2147C29.8684 51.8814 29.331 52.4174 28.6684 52.4174C28.003 52.4174 27.4657 51.8814 27.4657 51.2147C27.4657 50.552 28.003 50.016 28.6684 50.016C29.331 50.016 29.8684 50.552 29.8684 51.2147Z" fill="#231F20"/>
<mask id="mask1_477_2739" style="mask-type:luminance" maskUnits="userSpaceOnUse" x="-1" y="-1" width="149" height="62">
<path d="M-0.110229 60.5573H147.976V-0.11075H-0.110229V60.5573Z" fill="white"/>
</mask>
<g mask="url(#mask1_477_2739)">
<path d="M2.29377 42.6894C2.29377 43.3534 1.75644 43.8921 1.09244 43.8921C0.427104 43.8921 -0.110229 43.3534 -0.110229 42.6894C-0.110229 42.0254 0.427104 41.4854 1.09244 41.4854C1.75644 41.4854 2.29377 42.0254 2.29377 42.6894Z" fill="#231F20"/>
</g>
<path d="M24.1738 41.1736C24.1738 41.8402 23.6351 42.3762 22.9724 42.3762C22.3084 42.3762 21.7684 41.8402 21.7684 41.1736C21.7684 40.5069 22.3084 39.9709 22.9724 39.9709C23.6351 39.9709 24.1738 40.5069 24.1738 41.1736Z" fill="#231F20"/>
<path d="M31.6391 32.8367C31.6391 33.5034 31.1018 34.0367 30.4391 34.0367C29.7738 34.0367 29.2351 33.5034 29.2351 32.8367C29.2351 32.1741 29.7738 31.6367 30.4391 31.6367C31.1018 31.6367 31.6391 32.1741 31.6391 32.8367Z" fill="#231F20"/>
<path d="M35.0217 36.843C35.0217 37.507 34.4843 38.043 33.819 38.043C33.1563 38.043 32.6163 37.507 32.6163 36.843C32.6163 36.1803 33.1563 35.6403 33.819 35.6403C34.4843 35.6403 35.0217 36.1803 35.0217 36.843Z" fill="#231F20"/>
<path d="M22.555 26.0669C22.555 26.7309 22.0177 27.2722 21.3537 27.2722C20.6923 27.2722 20.1497 26.7309 20.1497 26.0669C20.1497 25.4042 20.6923 24.8629 21.3537 24.8629C22.0177 24.8629 22.555 25.4042 22.555 26.0669Z" fill="#231F20"/>
<path d="M12.3751 29.7383C12.3751 30.4023 11.8337 30.9423 11.1724 30.9423C10.5097 30.9423 9.97107 30.4023 9.97107 29.7383C9.97107 29.0743 10.5097 28.5343 11.1724 28.5343C11.8337 28.5343 12.3751 29.0743 12.3751 29.7383Z" fill="#231F20"/>
<path d="M13.8444 22.7884C13.8444 23.4524 13.3084 23.9924 12.6444 23.9924C11.9791 23.9924 11.4418 23.4524 11.4418 22.7884C11.4418 22.1258 11.9791 21.5858 12.6444 21.5858C13.3084 21.5858 13.8444 22.1258 13.8444 22.7884Z" fill="#231F20"/>
<path d="M31.4071 24.8366C31.4071 25.4993 30.8684 26.0353 30.2031 26.0353C29.5404 26.0353 29.0044 25.4993 29.0044 24.8366C29.0044 24.1699 29.5404 23.6286 30.2031 23.6286C30.8684 23.6286 31.4071 24.1699 31.4071 24.8366Z" fill="#231F20"/>
<path d="M34.3324 17.1501C34.3324 17.8141 33.795 18.3501 33.1297 18.3501C32.4657 18.3501 31.9297 17.8141 31.9297 17.1501C31.9297 16.4861 32.4657 15.9501 33.1297 15.9501C33.795 15.9501 34.3324 16.4861 34.3324 17.1501Z" fill="#231F20"/>
<path d="M48.7724 34.0406C48.7724 34.7033 48.2351 35.2433 47.5711 35.2433C46.9084 35.2433 46.3698 34.7033 46.3698 34.0406C46.3698 33.3766 46.9084 32.8366 47.5711 32.8366C48.2351 32.8366 48.7724 33.3766 48.7724 34.0406Z" fill="#231F20"/>
<path d="M36.0737 51.7664C36.0737 52.4278 35.5363 52.9664 34.8697 52.9664C34.207 52.9664 33.6697 52.4278 33.6697 51.7664C33.6697 51.1024 34.207 50.5611 34.8697 50.5611C35.5363 50.5611 36.0737 51.1024 36.0737 51.7664Z" fill="#231F20"/>
<path d="M24.9084 34.6099C24.9084 35.2739 24.3697 35.8099 23.7071 35.8099C23.0417 35.8099 22.5031 35.2739 22.5031 34.6099C22.5031 33.9459 23.0417 33.4099 23.7071 33.4099C24.3697 33.4099 24.9084 33.9459 24.9084 34.6099Z" fill="#231F20"/>
<path d="M46.6378 40.1108C46.6378 40.7735 46.1004 41.3108 45.4351 41.3108C44.7724 41.3108 44.2338 40.7735 44.2338 40.1108C44.2338 39.4481 44.7724 38.9081 45.4351 38.9081C46.1004 38.9081 46.6378 39.4481 46.6378 40.1108Z" fill="#231F20"/>
<path d="M18.2083 35.842C18.2083 36.5047 17.6723 37.0447 17.007 37.0447C16.343 37.0447 15.8057 36.5047 15.8057 35.842C15.8057 35.1793 16.343 34.6367 17.007 34.6367C17.6723 34.6367 18.2083 35.1793 18.2083 35.842Z" fill="#231F20"/>
<path d="M47.2324 16.7094C47.2324 17.3721 46.6977 17.9094 46.0324 17.9094C45.3697 17.9094 44.8324 17.3721 44.8324 16.7094C44.8324 16.0468 45.3697 15.5068 46.0324 15.5068C46.6977 15.5068 47.2324 16.0468 47.2324 16.7094Z" fill="#231F20"/>
<path d="M38.3884 43.8526C38.3884 44.5166 37.8497 45.0566 37.1884 45.0566C36.5231 45.0566 35.9857 44.5166 35.9857 43.8526C35.9857 43.1886 36.5231 42.6486 37.1884 42.6486C37.8497 42.6486 38.3884 43.1886 38.3884 43.8526Z" fill="#231F20"/>
</g>
<defs>
<clipPath id="clip0_477_2739">
<rect width="64" height="64" fill="white"/>
</clipPath>
</defs>
</svg>
