<svg width="48" height="48" viewBox="0 0 48 48" fill="none" xmlns="http://www.w3.org/2000/svg">
<mask id="mask0_196_1279" style="mask-type:luminance" maskUnits="userSpaceOnUse" x="0" y="0" width="48" height="48">
<path d="M48 0H0V48H48V0Z" fill="white"/>
</mask>
<g mask="url(#mask0_196_1279)">
<path d="M0 23.9442C0 10.7163 10.7163 0 23.9442 0C37.1721 0 47.8884 10.7163 47.8884 23.9442C47.8884 37.1721 37.1721 47.8884 23.9442 47.8884C10.7163 47.8605 0 37.1442 0 23.9442Z" fill="#5865F2"/>
<path d="M34.7162 14.2047C32.679 13.2838 30.5581 12.614 28.3534 12.2512C28.0744 12.7535 27.7674 13.3954 27.5441 13.9256C25.1999 13.5628 22.8279 13.5628 20.4837 13.9256C20.2325 13.3396 19.9534 12.7815 19.6465 12.2512C17.4418 12.614 15.293 13.2838 13.2837 14.2326C9.26507 20.2326 8.17669 26.0652 8.70693 31.8419C11.079 33.6001 13.7023 34.9396 16.5209 35.7768C17.1627 34.9117 17.7209 34.0187 18.1953 33.0698C17.2744 32.7349 16.4093 32.3163 15.572 31.814C15.7953 31.6466 15.9906 31.4791 16.2139 31.3117C21.1534 33.6559 26.9023 33.6559 31.8418 31.3117C32.0651 31.4791 32.2604 31.6466 32.4837 31.814C31.6465 32.3163 30.7534 32.7349 29.8325 33.0698C30.3069 34.0187 30.8651 34.9117 31.5069 35.7768C34.3255 34.9117 36.9767 33.6001 39.3209 31.8419C39.9348 25.1442 38.2046 19.3396 34.7162 14.2047ZM18.8651 28.2698C17.3302 28.2698 16.1023 26.8745 16.1023 25.1721C16.1023 23.4698 17.3302 22.0466 18.8651 22.0466C20.4279 22.0466 21.6558 23.4419 21.6558 25.1721C21.6279 26.8745 20.4279 28.2698 18.8651 28.2698ZM29.1348 28.2698C27.5999 28.2698 26.372 26.8745 26.372 25.1721C26.372 23.4698 27.5999 22.0466 29.1348 22.0466C30.6976 22.0466 31.9255 23.4419 31.8976 25.1721C31.8697 26.9024 30.6697 28.2698 29.1348 28.2698Z" fill="white"/>
</g>
</svg>
