<svg width="64" height="64" viewBox="0 0 64 64" fill="none" xmlns="http://www.w3.org/2000/svg">
<g clip-path="url(#clip0_512_2246)">
<path d="M29.68 0.0960419C26.384 0.448042 23.568 1.05604 21.152 1.93604C11.888 5.31204 4.736 12.672 1.664 22C0.336001 26.048 -0.192 30.352 0.128 34.288C0.24 35.536 0.384 36.752 0.448 36.976L0.560001 37.392L13.808 34.192C21.088 32.432 27.072 31.024 27.104 31.056C27.152 31.088 27.136 31.696 27.088 32.4L26.992 33.68L14.768 38.48C8.032 41.12 2.448 43.328 2.352 43.392C2.24 43.456 2.272 43.712 2.464 44.208C2.992 45.616 1.76 45.952 15.28 40.656L27.424 35.888L27.952 36.928C28.24 37.504 28.464 38 28.432 38.016C28.416 38.032 23.36 40.768 17.2 44.08C11.04 47.392 5.952 50.16 5.888 50.224C5.744 50.352 7.312 52.384 8.736 53.904C12.96 58.496 19.12 61.92 25.504 63.296C35.6 65.44 46.464 62.336 54.048 55.136C57.76 51.616 60.704 46.944 62.32 42.032C64.496 35.408 64.496 28.592 62.336 22C58.56 10.544 48.72 2.22404 36.768 0.400042C35.12 0.160042 30.896 -0.0319581 29.68 0.0960419ZM49.44 9.63204C50.608 10.432 50.64 10.528 50.688 14.256L50.752 17.6H37.456H24.16V23.504V29.408L20.128 30.384C17.904 30.928 15.952 31.36 15.792 31.36C15.52 31.36 15.504 30.864 15.552 21.136C15.6 11.04 15.6 10.896 15.936 10.448C16.112 10.208 16.512 9.84004 16.8 9.63204L17.328 9.28004H33.12H48.912L49.44 9.63204ZM36.96 27.76C38.416 28.272 39.664 29.472 40.352 30.976C40.624 31.584 40.704 32.08 40.704 33.2C40.72 34.448 40.656 34.768 40.288 35.568C39.696 36.832 38.368 38.112 37.168 38.56C35.952 39.04 34.16 39.072 33.04 38.656C30.736 37.792 29.28 35.696 29.28 33.2C29.28 31.664 29.712 30.512 30.672 29.44C32.32 27.6 34.704 26.96 36.96 27.76ZM24.16 48.8V54.56H19.84H15.52L15.552 51.024L15.6 47.472L19.68 45.264C21.92 44.048 23.856 43.04 23.968 43.04C24.112 43.04 24.16 44.304 24.16 48.8Z" fill="#00985F"/>
</g>
<defs>
<clipPath id="clip0_512_2246">
<rect width="64" height="64" fill="white"/>
</clipPath>
</defs>
</svg>
