<svg width="48" height="48" viewBox="0 0 48 48" fill="none" xmlns="http://www.w3.org/2000/svg">
<g clip-path="url(#clip0_196_1279)">
<path d="M47.532 24.553C47.532 22.9215 47.3997 21.2813 47.1175 19.6763H24.48V28.9182H37.4434C36.9055 31.8989 35.177 34.5357 32.6461 36.2113V42.208H40.3801C44.9217 38.0279 47.532 31.8548 47.532 24.553Z" fill="#4285F4"/>
<path d="M24.48 48.0017C30.9529 48.0017 36.4116 45.8764 40.3888 42.2078L32.6549 36.2111C30.5031 37.675 27.7252 38.5039 24.4888 38.5039C18.2275 38.5039 12.9187 34.2798 11.0139 28.6006H3.03296V34.7825C7.10718 42.8868 15.4056 48.0017 24.48 48.0017V48.0017Z" fill="#34A853"/>
<path d="M11.0051 28.6004C9.99973 25.6197 9.99973 22.3921 11.0051 19.4114V13.2295H3.03298C-0.371021 20.011 -0.371021 28.0008 3.03298 34.7823L11.0051 28.6004V28.6004Z" fill="#FBBC04"/>
<path d="M24.48 9.49932C27.9016 9.44641 31.2086 10.7339 33.6866 13.0973L40.5387 6.24523C36.2 2.17101 30.4414 -0.068932 24.48 0.00161733C15.4055 0.00161733 7.10718 5.11644 3.03296 13.2296L11.005 19.4115C12.901 13.7235 18.2187 9.49932 24.48 9.49932V9.49932Z" fill="#EA4335"/>
</g>
<defs>
<clipPath id="clip0_196_1279">
<rect width="48" height="48" fill="white"/>
</clipPath>
</defs>
</svg>
