<svg width="48" height="48" viewBox="0 0 48 48" fill="none" xmlns="http://www.w3.org/2000/svg">
<g clip-path="url(#clip0_196_1279)">
<path d="M48 24C48 37.2973 37.2973 48 24 48C10.7027 48 0 37.2973 0 24C0 10.7027 10.7027 0 24 0C37.2973 0 48 10.7027 48 24Z" fill="#55B25D"/>
<path d="M41.5135 18.8108C41.3513 18.1622 41.027 17.6757 40.3783 17.3514C38.5945 16.5406 36.9729 15.7298 35.3513 15.0811C30.8108 13.4595 26.4324 12.8108 21.7297 12.6487C19.9459 12.6487 17.9999 12.6487 16.2162 12.8108C14.4324 12.973 12.6486 13.2973 11.027 13.6217C10.3783 13.7838 9.56751 13.946 8.91886 14.1081C7.94589 14.4325 7.29724 15.2433 7.4594 16.2162C7.4594 17.1892 8.10805 18 9.08103 18.3244C9.40535 18.4865 10.054 18.4865 10.3783 18.3244C11.027 18.1622 11.8378 17.8379 12.4864 17.8379C14.4324 17.5135 16.3783 17.1892 18.3243 17.0271C19.9459 16.8649 21.7297 16.8649 23.3513 17.0271C24.9729 17.1892 26.5945 17.3514 28.2162 17.5135C30.4864 17.8379 32.7567 18.4865 35.027 19.2973C36.1621 19.6217 37.2972 20.2703 38.2702 20.9189C39.8918 21.7298 41.6756 20.5946 41.5135 18.8108C41.5135 19.1352 41.5135 18.973 41.5135 18.8108Z" fill="#010202"/>
<path d="M19.7838 24.6486C17.027 24.6486 14.2702 24.9729 11.5135 25.7838C11.1892 25.9459 10.5405 25.9459 10.2162 25.7838C9.56754 25.6216 9.08105 24.8108 9.08105 24C9.08105 23.1892 9.56754 22.5405 10.3784 22.3783C11.1892 22.2162 12 22.054 12.6486 21.7297C14.5946 21.4054 16.5405 21.0811 18.6486 20.9189C22.8648 20.7567 27.0811 21.2432 31.2973 22.5405C33.4054 23.1892 35.3513 24.1621 37.1351 25.1351C37.2973 25.1351 37.2973 25.2973 37.4594 25.2973C38.4324 25.9459 38.4324 27.0811 38.1081 27.8919C37.4594 28.8648 36.3243 29.027 35.3513 28.5405C34.8648 28.2162 34.3783 27.8919 33.7297 27.5675C31.4594 26.2702 28.8648 25.6216 26.2702 24.9729C24.1621 24.9729 22.054 24.6486 19.7838 24.6486Z" fill="#010202"/>
<path d="M20.2702 28.7028C23.3513 28.7028 26.4324 29.1892 29.5135 30.1622C31.1351 30.6487 32.7567 31.4595 34.2162 32.4325C34.3783 32.5947 34.5405 32.5947 34.5405 32.7568C35.1891 33.0811 35.3513 33.8919 34.8648 34.5406C34.3783 35.1892 33.7297 35.3514 33.081 35.1892C32.9189 35.1892 32.7567 35.0271 32.7567 34.8649C30.1621 33.2433 27.4054 32.4325 24.6486 31.946C22.7027 31.7838 20.9189 31.6217 19.1351 31.7838C16.7027 31.946 14.4324 32.1082 12.1621 32.7568C11.8378 32.7568 11.6756 32.919 11.5135 32.919C10.8648 32.919 10.2162 32.4325 10.054 31.7838C9.89185 30.973 10.3783 30.3244 11.027 30.1622C11.1891 30.1622 11.3513 30.0001 11.3513 30.0001C13.2973 29.5136 15.2432 29.0271 17.1891 28.8649C18.1621 28.8649 19.1351 28.8649 20.2702 28.7028Z" fill="#010202"/>
</g>
<defs>
<clipPath id="clip0_196_1279">
<rect width="48" height="48" fill="white"/>
</clipPath>
</defs>
</svg>
