<svg width="48" height="48" viewBox="0 0 48 48" fill="none" xmlns="http://www.w3.org/2000/svg">
<path d="M0 24V48H24H48V24V-4.14252e-06H24H0V24ZM11.52 11.94V12.6H10.56H9.6V15.288V17.976L8.928 18.024C8.556 18.036 8.232 18.036 8.208 18.012C8.184 17.988 8.16 16.752 8.16 15.276V12.6H7.2H6.24V11.94V11.28H8.88H11.52V11.94ZM15.12 12.54V13.8H16.62H18.12V12.54V11.28H18.84H19.56V14.64V18H18.84H18.12V16.56V15.12H16.62H15.12V16.56V18H14.4H13.68V14.64V11.28H14.4H15.12V12.54ZM26.256 11.904L26.22 12.54L24.66 12.6L23.1 12.66V13.26V13.86L24.576 13.896L26.04 13.932V14.58V15.24H24.54H23.04V15.96V16.68H24.72H26.4V17.34V18H24.06H21.72V14.64V11.28H24.012H26.292L26.256 11.904ZM39.6 11.592C40.632 12.084 41.484 13.236 41.604 14.328C41.688 15.024 41.364 16.068 40.884 16.704C40.632 17.028 40.212 17.364 39.732 17.604L38.976 18H35.172C30.708 18 30.552 17.976 29.568 16.98C27.804 15.216 28.476 12.336 30.864 11.508C31.44 11.304 31.86 11.28 35.28 11.316C38.844 11.34 39.096 11.352 39.6 11.592ZM8.928 21.384C9.804 23.916 10.236 25.08 10.308 25.02C10.344 24.984 10.704 24.012 11.1 22.884L11.832 20.82L12.936 20.784L14.04 20.748V24.12V27.48H13.32H12.6L12.576 24.924L12.54 22.38L12.012 23.94C11.724 24.792 11.328 25.944 11.136 26.484L10.776 27.48H10.224L9.66 27.468L8.82 24.924L7.98 22.38L7.944 24.924L7.92 27.48H7.2H6.48V24.12V20.76H7.596H8.7L8.928 21.384ZM20.712 20.988C22.896 21.984 23.436 24.792 21.768 26.46C20.136 28.092 17.34 27.6 16.368 25.5C15.54 23.736 16.536 21.42 18.36 20.868C18.948 20.7 20.196 20.76 20.712 20.988ZM25.776 21.984C26.04 22.668 26.4 23.64 26.58 24.144C26.76 24.66 26.952 25.08 27 25.08C27.084 25.08 28.08 22.608 28.536 21.264L28.704 20.76H29.472H30.24L29.952 21.504C29.784 21.924 29.184 23.424 28.596 24.84L27.54 27.42H26.94H26.34L25.056 24.24C24.348 22.488 23.772 20.988 23.772 20.904C23.76 20.808 23.988 20.76 24.528 20.76H25.284L25.776 21.984ZM33.996 20.904C34.02 20.988 34.044 22.488 34.032 24.24L34.02 27.42L33.336 27.456L32.64 27.492V24.12V20.76H33.288C33.696 20.76 33.96 20.82 33.996 20.904ZM41.4 21.36V21.948L39.876 21.984L38.34 22.02L38.304 22.704L38.268 23.4H39.78H41.28V23.988C41.28 24.408 41.232 24.6 41.088 24.648C40.98 24.684 40.308 24.72 39.588 24.72H38.28V25.44V26.16H39.972H41.652L41.616 26.784L41.58 27.42H39.24H36.9L36.864 24.24C36.852 22.488 36.864 21 36.9 20.916C36.936 20.796 37.488 20.76 39.18 20.76H41.4V21.36ZM23.892 30.492C24.612 30.828 25.308 31.56 25.62 32.316C25.86 32.88 25.848 34.008 25.608 34.716C25.368 35.424 24.54 36.288 23.784 36.636C23.22 36.9 23.16 36.9 16.32 36.9H9.42L8.736 36.564C7.512 35.964 6.84 34.848 6.84 33.432C6.852 31.956 7.824 30.708 9.36 30.228C9.528 30.18 12.708 30.144 16.44 30.156L23.22 30.18L23.892 30.492ZM31.056 30.24C32.136 30.384 32.808 30.672 33.384 31.26C34.488 32.376 34.476 34.62 33.36 35.76C33.108 36.012 32.748 36.3 32.544 36.408C31.884 36.756 30.696 36.96 29.376 36.96H28.08V33.54V30.12H29.136C29.712 30.12 30.576 30.18 31.056 30.24ZM40.152 30.312C40.368 30.336 40.716 30.516 40.932 30.708C41.256 30.996 41.328 31.152 41.376 31.704C41.424 32.268 41.388 32.4 41.112 32.724C40.932 32.94 40.68 33.144 40.56 33.18C40.212 33.288 40.272 33.396 40.812 33.648C41.4 33.912 41.652 34.284 41.724 34.956C41.796 35.628 41.424 36.204 40.632 36.588C40.128 36.84 39.84 36.888 38.268 36.936L36.48 36.996V33.636C36.48 31.788 36.516 30.24 36.564 30.204C36.648 30.12 39.48 30.204 40.152 30.312Z" fill="#1FB9D7"/>
<path d="M29.484 31.6199C29.436 31.7279 29.4 32.6519 29.4 33.6839V35.5439L30.468 35.4959C31.32 35.4719 31.608 35.4119 31.872 35.2079C32.436 34.7879 32.676 34.3679 32.736 33.6719C32.844 32.3639 32.004 31.5719 30.42 31.4639C29.688 31.4159 29.544 31.4399 29.484 31.6199Z" fill="#1FB9D7"/>
<path d="M37.92 32.1V32.88H38.736C39.444 32.88 39.6 32.844 39.816 32.604C40.152 32.244 40.152 31.98 39.78 31.62C39.528 31.356 39.384 31.32 38.7 31.32H37.92V32.1Z" fill="#1FB9D7"/>
<path d="M37.944 34.8839L37.98 35.6999L38.58 35.7359C39.768 35.8199 40.464 35.3759 40.284 34.6439C40.176 34.2479 39.732 34.0799 38.748 34.0799H37.908L37.944 34.8839Z" fill="#1FB9D7"/>
</svg>
