<svg width="48" height="48" viewBox="0 0 48 48" fill="none" xmlns="http://www.w3.org/2000/svg">
<path d="M33.4855 12.6994C33.4855 9.667 30.7489 7.19995 27.3853 7.19995H26.3336V10.0445H27.3853C29.0091 10.0445 30.3302 11.2355 30.3302 12.6994C30.3302 14.1632 29.0091 15.3542 27.3853 15.3542H0.14502V18.1988H27.3853C30.7489 18.1988 33.4855 15.7318 33.4855 12.6994Z" fill="#022B3A"/>
<path d="M35.2734 31.4729H0.14502V34.3174H35.2734C36.8972 34.3174 38.2183 35.5084 38.2183 36.9723C38.2183 38.4362 36.8972 39.6272 35.2734 39.6272H34.2217V42.4717H35.2734C38.637 42.4717 41.3736 40.0047 41.3736 36.9723C41.3736 33.94 38.637 31.4729 35.2734 31.4729Z" fill="#022B3A"/>
<path d="M48 23.4138H14.4492V26.2583H31.2246H48V23.4138Z" fill="#022B3A"/>
<path d="M11.294 23.4138H0V26.2583H11.294V23.4138Z" fill="#022B3A"/>
</svg>
