<svg xmlns="http://www.w3.org/2000/svg" width="24" height="22" viewBox="0 0 24 22" fill="none">
    <path d="M22.6799 0.0818692C22.2623 0.0966093 21.879 0.317705 21.6579 0.671458L9.82684 18.7718L2.16218 12.1488C1.83299 11.8073 1.33921 11.6796 0.884736 11.8221C0.432718 11.9621 0.0961614 12.3453 0.0175495 12.8121C-0.0610624 13.2813 0.128097 13.753 0.51133 14.0355L9.27655 21.6215C9.55169 21.8549 9.91528 21.9581 10.2715 21.9065C10.6302 21.8524 10.9471 21.6485 11.1436 21.3464L23.7804 2.04717C24.0507 1.65165 24.0728 1.14067 23.8394 0.723047C23.606 0.307879 23.1565 0.0597598 22.6799 0.0818692Z"
          fill="#53B343"/>
</svg>
