<svg xmlns="http://www.w3.org/2000/svg" width="20" height="20" viewBox="0 0 20 20" fill="none">
    <g clip-path="url(#clip0_96_1336)">
        <path d="M14.1666 2.47205C14.3855 2.25563 14.6453 2.08396 14.9313 1.96684C15.2173 1.84971 15.5238 1.78943 15.8333 1.78943C16.1428 1.78943 16.4493 1.84971 16.7353 1.96684C17.0213 2.08396 17.2811 2.25563 17.5 2.47205C17.7188 2.68847 17.8924 2.94539 18.0109 3.22815C18.1294 3.51092 18.1903 3.81398 18.1903 4.12004C18.1903 4.4261 18.1294 4.72917 18.0109 5.01193C17.8924 5.29469 17.7188 5.55162 17.5 5.76803L6.24996 16.892L1.66663 18.128L2.91663 13.596L14.1666 2.47205Z"
              stroke="#2D2D2D" stroke-width="2" stroke-linecap="round" stroke-linejoin="round"/>
    </g>
    <defs>
        <clipPath id="clip0_96_1336">
            <rect width="20" height="19.7759" fill="white"/>
        </clipPath>
    </defs>
</svg>
