<svg width="46" height="46" viewBox="0 0 46 46" fill="none" xmlns="http://www.w3.org/2000/svg">
<path d="M8.63206 8.63003C8.83106 8.43033 9.06753 8.27188 9.3279 8.16377C9.58828 8.05565 9.86743 8 10.1494 8C10.4313 8 10.7104 8.05565 10.9708 8.16377C11.2312 8.27188 11.4677 8.43033 11.6667 8.63003L22.9982 19.9687L34.3369 8.63003C34.7393 8.22762 35.2851 8.00154 35.8542 8.00154C36.4233 8.00154 36.9691 8.22762 37.3715 8.63003C37.7739 9.03244 38 9.57823 38 10.1473C38 10.7164 37.7739 11.2622 37.3715 11.6646L26.0292 22.9962L37.3679 34.3349C37.7686 34.7382 37.9935 35.2837 37.9935 35.8522C37.9935 36.4207 37.7686 36.9662 37.3679 37.3695C37.1689 37.5692 36.9325 37.7276 36.6721 37.8357C36.4117 37.9439 36.1326 37.9995 35.8506 37.9995C35.5687 37.9995 35.2896 37.9439 35.0292 37.8357C34.7688 37.7276 34.5323 37.5692 34.3333 37.3695L22.9982 26.0272L11.6631 37.3659C11.2607 37.7683 10.7149 37.9944 10.1458 37.9944C9.57669 37.9944 9.0309 37.7683 8.62849 37.3659C8.22607 36.9635 8 36.4177 8 35.8486C8 35.2795 8.22607 34.7337 8.62849 34.3313L19.9708 22.9962L8.63206 11.6611C8.43236 11.4621 8.27391 11.2256 8.1658 10.9652C8.05768 10.7048 8.00203 10.4257 8.00203 10.1438C8.00203 9.86183 8.05768 9.58268 8.1658 9.32231C8.27391 9.06194 8.43236 8.82904 8.63206 8.63003Z" fill="#0C0312"/>
</svg>
