<svg width="28" height="28" viewBox="0 0 40 40" fill="none" xmlns="http://www.w3.org/2000/svg">
<path d="M38.8 19.65C38.8 19.65 31.9 7 20.4 7C8.9 7 2 19.65 2 19.65C2 19.65 8.9 32.3 20.4 32.3C31.9 32.3 38.8 19.65 38.8 19.65ZM4.69867 19.65C5.81075 17.9596 7.08984 16.3851 8.51667 14.9503C11.476 11.9872 15.524 9.3 20.4 9.3C25.276 9.3 29.3221 11.9872 32.2872 14.9503C33.7132 16.3859 34.9935 17.9595 36.1052 19.65C35.971 19.8493 35.8253 20.0717 35.6567 20.3132C34.6524 21.7536 33.525 23.1042 32.2872 24.3497C29.3221 27.3128 25.2741 30 20.4 30C15.524 30 11.4798 27.3128 8.51475 24.3497C7.08851 22.9149 5.81006 21.3404 4.69867 19.65Z" fill="#0C0312"/>
<path d="M20.4 13.9C18.875 13.9 17.4124 14.5058 16.3341 15.5841C15.2558 16.6625 14.65 18.125 14.65 19.65C14.65 21.175 15.2558 22.6375 16.3341 23.7159C17.4124 24.7942 18.875 25.4 20.4 25.4C21.925 25.4 23.3875 24.7942 24.4658 23.7159C25.5442 22.6375 26.15 21.175 26.15 19.65C26.15 18.125 25.5442 16.6625 24.4658 15.5841C23.3875 14.5058 21.925 13.9 20.4 13.9ZM12.35 19.65C12.35 18.5929 12.5582 17.5461 12.9627 16.5694C13.3673 15.5927 13.9603 14.7053 14.7078 13.9578C15.4553 13.2103 16.3427 12.6173 17.3194 12.2128C18.296 11.8082 19.3428 11.6 20.4 11.6C21.4571 11.6 22.5039 11.8082 23.4806 12.2128C24.4572 12.6173 25.3447 13.2103 26.0922 13.9578C26.8397 14.7053 27.4327 15.5927 27.8372 16.5694C28.2418 17.5461 28.45 18.5929 28.45 19.65C28.45 21.785 27.6019 23.8325 26.0922 25.3422C24.5825 26.8519 22.535 27.7 20.4 27.7C18.265 27.7 16.2174 26.8519 14.7078 25.3422C13.1981 23.8325 12.35 21.785 12.35 19.65Z" fill="#0C0312"/>
</svg>
