<svg width="20" height="20" viewBox="0 0 20 20" fill="none" xmlns="http://www.w3.org/2000/svg">
<path d="M19.6671 7.6242L19.639 7.55234L16.9168 0.448077C16.8614 0.308837 16.7634 0.190719 16.6367 0.110672C16.5099 0.0319836 16.3621 -0.00591508 16.2131 0.00209265C16.0641 0.0101004 15.9212 0.0636289 15.8036 0.155451C15.6873 0.249909 15.6029 0.377903 15.562 0.522015L13.724 6.14544H6.28124L4.44321 0.522015C4.40335 0.377118 4.31881 0.248482 4.20161 0.154409C4.08402 0.0625873 3.94108 0.00905877 3.7921 0.00105105C3.64312 -0.00695668 3.49527 0.030942 3.36851 0.10963C3.24212 0.190001 3.14414 0.308015 3.08838 0.447035L0.36102 7.54818L0.333944 7.62003C-0.0579225 8.64392 -0.106292 9.76745 0.196129 10.8212C0.498549 11.875 1.13536 12.8019 2.01056 13.4621L2.01993 13.4694L2.04492 13.4871L6.19168 16.5925L8.24319 18.1452L9.49285 19.0887C9.63902 19.1997 9.8175 19.2598 10.001 19.2598C10.1846 19.2598 10.3631 19.1997 10.5092 19.0887L11.7589 18.1452L13.8104 16.5925L17.9821 13.4684L17.9926 13.4601C18.8658 12.7997 19.5011 11.8738 19.8031 10.8214C20.105 9.76904 20.0573 8.64711 19.6671 7.6242Z" fill="#E24329"/>
<path d="M19.6671 7.62422L19.639 7.55237C18.3126 7.82463 17.0627 8.38647 15.9785 9.19774L10 13.7184C12.0359 15.2585 13.8083 16.5967 13.8083 16.5967L17.9801 13.4726L17.9905 13.4643C18.865 12.8039 19.5013 11.8774 19.8037 10.8241C20.106 9.77086 20.0581 8.64789 19.6671 7.62422Z" fill="#FC6D26"/>
<path d="M6.19165 16.5967L8.24316 18.1494L9.49281 19.0929C9.63899 19.2039 9.81747 19.264 10.001 19.264C10.1845 19.264 10.363 19.2039 10.5092 19.0929L11.7588 18.1494L13.8104 16.5967C13.8104 16.5967 12.0359 15.2544 9.99996 13.7184C7.96407 15.2544 6.19165 16.5967 6.19165 16.5967Z" fill="#FCA326"/>
<path d="M4.02041 9.19776C2.93717 8.38481 1.68753 7.82151 0.36102 7.54822L0.333944 7.62007C-0.0579225 8.64396 -0.106292 9.76749 0.196129 10.8213C0.498549 11.875 1.13536 12.8019 2.01056 13.4622L2.01993 13.4695L2.04493 13.4872L6.19168 16.5926C6.19168 16.5926 7.96202 15.2544 10 13.7142L4.02041 9.19776Z" fill="#FC6D26"/>
</svg>
