<svg width="46" height="46" viewBox="0 0 46 46" fill="#0C0312" xmlns="http://www.w3.org/2000/svg">
    <path d="M23 39.7708C18.5521 39.7708 14.2864 38.0039 11.1413 34.8588C7.99613 31.7136 6.22921 27.4479 6.22921 23C6.22921 18.5521 7.99613 14.2864 11.1413 11.1412C14.2864 7.9961 18.5521 6.22918 23 6.22918C27.4479 6.22918 31.7137 7.9961 34.8588 11.1412C38.004 14.2864 39.7709 18.5521 39.7709 23C39.7709 27.4479 38.004 31.7136 34.8588 34.8588C31.7137 38.0039 27.4479 39.7708 23 39.7708ZM23 42.1667C28.0834 42.1667 32.9585 40.1473 36.5529 36.5529C40.1474 32.9584 42.1667 28.0833 42.1667 23C42.1667 17.9167 40.1474 13.0416 36.5529 9.44713C32.9585 5.85268 28.0834 3.83334 23 3.83334C17.9167 3.83334 13.0416 5.85268 9.44716 9.44713C5.85271 13.0416 3.83337 17.9167 3.83337 23C3.83337 28.0833 5.85271 32.9584 9.44716 36.5529C13.0416 40.1473 17.9167 42.1667 23 42.1667Z" fill="#0C0312"/>
    <path d="M16.424 17.6947C16.4203 17.772 16.4325 17.8494 16.4599 17.9218C16.4872 17.9943 16.5291 18.0604 16.583 18.1161C16.6369 18.1718 16.7016 18.2158 16.7731 18.2455C16.8446 18.2752 16.9215 18.29 16.999 18.2888H18.977C19.3086 18.2888 19.5711 18.0167 19.6152 17.6889C19.8299 16.1173 20.909 14.9711 22.8295 14.9711C24.474 14.9711 25.9786 15.7933 25.9786 17.7694C25.9786 19.2913 25.0816 19.9908 23.6651 21.0546C22.0551 22.2257 20.7767 23.5942 20.8668 25.8156L20.8745 26.335C20.8775 26.4921 20.942 26.6418 21.0542 26.7518C21.1664 26.8618 21.3173 26.9234 21.4744 26.9234H23.416C23.5748 26.9234 23.7271 26.8605 23.8395 26.7484C23.952 26.6363 24.0154 26.4842 24.0159 26.3254V26.0743C24.0159 24.3532 24.6695 23.8529 26.4347 22.5132C27.8952 21.4034 29.4151 20.1729 29.4151 17.5873C29.4151 13.9667 26.3581 12.2188 23.0135 12.2188C19.9756 12.2188 16.6501 13.6313 16.424 17.6947ZM20.1538 31.5023C20.1538 32.7788 21.1716 33.7237 22.5726 33.7237C24.0331 33.7237 25.0356 32.7808 25.0356 31.5023C25.0356 30.1798 24.0293 29.2503 22.5707 29.2503C21.1716 29.2503 20.1538 30.1798 20.1538 31.5023Z" fill="#0C0312"/>
</svg>
