<svg width="46" height="46" viewBox="0 0 46 46" fill="none" xmlns="http://www.w3.org/2000/svg">
<path d="M11.5 36.8C11.5 36.8 9.19995 36.8 9.19995 34.5C9.19995 32.2 11.5 25.3 23 25.3C34.5 25.3 36.8 32.2 36.8 34.5C36.8 36.8 34.5 36.8 34.5 36.8H11.5ZM23 23C24.8299 23 26.585 22.273 27.879 20.979C29.173 19.685 29.9 17.93 29.9 16.1C29.9 14.27 29.173 12.515 27.879 11.221C26.585 9.92696 24.8299 9.2 23 9.2C21.17 9.2 19.4149 9.92696 18.1209 11.221C16.8269 12.515 16.0999 14.27 16.0999 16.1C16.0999 17.93 16.8269 19.685 18.1209 20.979C19.4149 22.273 21.17 23 23 23Z" fill="#040416"/>
</svg>
