<svg width="28" height="28" viewBox="0 0 28 28" fill="none" xmlns="http://www.w3.org/2000/svg">
<g clip-path="url(#clip0_179_168)">
<path d="M25.375 14.2628C25.3676 14.1263 25.3121 13.9968 25.2184 13.8973C25.1246 13.7978 24.9987 13.7347 24.8628 13.7191L23.4605 13.4928C23.3974 13.4824 23.3393 13.4517 23.2951 13.4054C23.2509 13.3591 23.223 13.2997 23.2155 13.2361C23.1902 13.0617 23.159 12.8882 23.1222 12.7158C23.1099 12.6542 23.1171 12.5903 23.1429 12.5331C23.1686 12.4758 23.2115 12.4279 23.2657 12.3961L24.5117 11.7043C24.6352 11.6412 24.7313 11.5349 24.7816 11.4057C24.8319 11.2764 24.833 11.1332 24.7847 11.0031L24.5688 10.407C24.5214 10.2764 24.4274 10.1679 24.3049 10.1022C24.1824 10.0366 24.04 10.0184 23.905 10.0511L22.5085 10.3241C22.446 10.3354 22.3815 10.3265 22.3242 10.2989C22.267 10.2712 22.22 10.2262 22.19 10.1701C22.1066 10.0146 22.0191 9.86132 21.9275 9.71048C21.8937 9.65619 21.8777 9.59264 21.8819 9.52881C21.8861 9.46497 21.9102 9.40406 21.9508 9.35465L22.8807 8.28131C22.9754 8.17988 23.0299 8.0474 23.034 7.90866C23.0381 7.76993 22.9915 7.63447 22.9028 7.52765L22.4968 7.04115C22.4086 6.93402 22.2837 6.86348 22.1464 6.84322C22.0091 6.82295 21.8691 6.85441 21.7537 6.93148L20.531 7.66648C20.4766 7.69897 20.4132 7.71311 20.3502 7.70681C20.2872 7.70051 20.2279 7.6741 20.181 7.63148C20.0495 7.51554 19.9153 7.40273 19.7785 7.29315C19.729 7.25374 19.6933 7.19963 19.6765 7.13861C19.6597 7.07759 19.6628 7.01282 19.6852 6.95365L20.1903 5.61898C20.2456 5.49162 20.2522 5.34838 20.2087 5.2165C20.1653 5.08463 20.0749 4.97334 19.9547 4.90381L19.404 4.58415C19.2837 4.51477 19.1421 4.49225 19.0062 4.52088C18.8704 4.54952 18.7499 4.6273 18.6678 4.73931L17.773 5.85931C17.741 5.90819 17.693 5.94437 17.6372 5.96162C17.5814 5.97888 17.5213 5.97611 17.4673 5.95381C17.4323 5.94098 17.1523 5.82548 16.933 5.75198C16.8727 5.73253 16.8203 5.69429 16.7833 5.64285C16.7464 5.59141 16.7269 5.52948 16.7277 5.46615L16.7487 4.04048C16.7566 3.90132 16.7135 3.76404 16.6273 3.65446C16.5412 3.54489 16.4179 3.47057 16.2808 3.44548L15.6543 3.33581C15.5181 3.31252 15.378 3.33939 15.26 3.41147C15.142 3.48354 15.0541 3.59593 15.0127 3.72781L14.546 5.08465C14.5253 5.14481 14.4857 5.1967 14.4332 5.23263C14.3806 5.26856 14.3179 5.28662 14.2543 5.28415H13.7212C13.6579 5.2852 13.5958 5.26642 13.5437 5.23043C13.4916 5.19445 13.4521 5.14306 13.4307 5.08348L12.9687 3.73481C12.9281 3.6016 12.8402 3.48779 12.7216 3.41475C12.6031 3.34171 12.4619 3.31447 12.3247 3.33815L11.6982 3.44781C11.5619 3.47254 11.4392 3.5459 11.353 3.65426C11.2667 3.76263 11.2227 3.89862 11.2292 4.03698L11.2513 5.46848C11.2516 5.53266 11.2313 5.59523 11.1932 5.64692C11.1552 5.69861 11.1015 5.73668 11.0402 5.75548L10.5198 5.95381C10.4102 5.99348 10.29 5.95031 10.192 5.83831L9.30184 4.74515C9.22043 4.63344 9.1008 4.55556 8.96571 4.52631C8.83063 4.49705 8.6895 4.51847 8.56917 4.58648L8.0185 4.90615C7.89739 4.97597 7.80634 5.08808 7.76284 5.22094C7.71935 5.3538 7.72647 5.49805 7.78284 5.62598L8.288 6.95715C8.30997 7.01656 8.31278 7.08137 8.29604 7.14247C8.2793 7.20356 8.24385 7.25789 8.19467 7.29781C8.06284 7.40748 7.92634 7.51598 7.791 7.63848C7.74442 7.68073 7.68551 7.70693 7.62293 7.71323C7.56036 7.71953 7.49741 7.7056 7.44334 7.67348L6.23467 6.92448C6.11857 6.84885 5.97883 6.81826 5.84175 6.83846C5.70467 6.85865 5.57969 6.92825 5.49034 7.03415L5.0855 7.52065C4.9957 7.62657 4.94808 7.76187 4.95174 7.90068C4.9554 8.0395 5.01008 8.1721 5.10534 8.27315L6.03984 9.34531C6.08119 9.39364 6.1059 9.45398 6.11031 9.51743C6.11472 9.58088 6.0986 9.64406 6.06434 9.69765C5.971 9.84581 5.88234 10.0021 5.80184 10.1596C5.7714 10.2158 5.72399 10.261 5.66638 10.2886C5.60876 10.3163 5.54389 10.325 5.481 10.3136L4.08567 10.043C3.95063 10.0105 3.80836 10.0288 3.68595 10.0944C3.56353 10.16 3.46953 10.2684 3.42184 10.3988L3.2025 10.9938C3.15417 11.1241 3.1554 11.2677 3.20594 11.3972C3.25648 11.5266 3.35283 11.633 3.47667 11.6961L4.72267 12.388C4.77871 12.419 4.82314 12.4674 4.84924 12.526C4.87534 12.5845 4.88169 12.6499 4.86734 12.7123L4.85567 12.78C4.82534 12.9316 4.79967 13.0775 4.774 13.2315C4.7654 13.2942 4.73718 13.3526 4.69339 13.3982C4.64959 13.4439 4.59245 13.4746 4.53017 13.4858L3.12434 13.7121C2.98697 13.7292 2.86051 13.7956 2.76861 13.8991C2.67671 14.0026 2.62566 14.1361 2.625 14.2745V14.908C2.62451 15.0469 2.67553 15.181 2.76819 15.2844C2.86085 15.3879 2.98858 15.4533 3.12667 15.468L4.53017 15.6955C4.59328 15.7058 4.65135 15.7363 4.69572 15.7823C4.74008 15.8284 4.76836 15.8875 4.77634 15.951C4.80317 16.1236 4.83117 16.301 4.86967 16.4713C4.88183 16.533 4.87442 16.597 4.84849 16.6543C4.82256 16.7116 4.77939 16.7594 4.725 16.791L3.48017 17.484C3.35663 17.5471 3.26057 17.6533 3.21024 17.7826C3.15991 17.9119 3.15882 18.0551 3.20717 18.1851L3.42534 18.7813C3.47281 18.9119 3.56678 19.0204 3.68926 19.0861C3.81174 19.1517 3.95412 19.1699 4.08917 19.1371L5.48684 18.8665C5.54921 18.8555 5.61345 18.8645 5.67042 18.8921C5.7274 18.9198 5.7742 18.9647 5.80417 19.0205C5.88584 19.1733 5.97567 19.3285 6.06667 19.4813C6.10024 19.5355 6.11604 19.5988 6.11185 19.6624C6.10767 19.726 6.08371 19.7867 6.04334 19.836L5.1135 20.9105C5.01801 21.011 4.96248 21.1429 4.95733 21.2814C4.95217 21.42 4.99775 21.5556 5.0855 21.663L5.4915 22.1506C5.57971 22.2575 5.70439 22.3278 5.84143 22.3481C5.97848 22.3683 6.11816 22.337 6.2335 22.2603L7.45734 21.5253C7.51171 21.4928 7.57509 21.4787 7.63812 21.485C7.70115 21.4913 7.76047 21.5177 7.80734 21.5603C7.94267 21.6781 8.08034 21.7936 8.20984 21.8986C8.25911 21.938 8.29468 21.9919 8.31144 22.0527C8.32821 22.1134 8.32531 22.178 8.30317 22.237L7.79684 23.5728C7.74186 23.7 7.73549 23.843 7.77893 23.9746C7.82237 24.1062 7.9126 24.2173 8.0325 24.2868L8.5855 24.6065C8.70553 24.6756 8.84682 24.6982 8.98239 24.6698C9.11797 24.6414 9.23834 24.564 9.3205 24.4525L10.227 23.3395C10.3028 23.245 10.423 23.203 10.5128 23.238C10.703 23.3173 10.8302 23.3616 11.0565 23.4363C11.1169 23.456 11.1694 23.4944 11.2063 23.5461C11.2433 23.5977 11.2627 23.6598 11.2618 23.7233L11.2385 25.1466C11.2314 25.286 11.2751 25.4231 11.3616 25.5326C11.4481 25.6421 11.5715 25.7164 11.7087 25.7416L12.334 25.8525C12.4705 25.8761 12.6108 25.8493 12.7291 25.7773C12.8473 25.7052 12.9353 25.5926 12.9768 25.4605L13.4412 24.1048C13.4627 24.0448 13.5028 23.9932 13.5557 23.9575C13.6086 23.9219 13.6714 23.904 13.7352 23.9065H14.2683C14.3314 23.9052 14.3932 23.9238 14.4451 23.9596C14.4971 23.9954 14.5364 24.0466 14.5577 24.106L15.0208 25.4558C15.0614 25.589 15.1493 25.7028 15.2679 25.7759C15.3864 25.8489 15.5276 25.8762 15.6648 25.8525L16.2925 25.7428C16.4288 25.7178 16.5513 25.6442 16.6374 25.5356C16.7234 25.427 16.7671 25.2909 16.7603 25.1525L16.7393 23.7221C16.7389 23.6592 16.7584 23.5977 16.7951 23.5466C16.8318 23.4954 16.8837 23.4572 16.9435 23.4375C17.1535 23.3675 17.3005 23.3091 17.4312 23.2601L17.4638 23.2473C17.6318 23.189 17.7112 23.2555 17.7637 23.3185L18.6795 24.4478C18.7617 24.5593 18.882 24.6367 19.0176 24.6651C19.1532 24.6935 19.2945 24.671 19.4145 24.6018L19.9652 24.2821C20.0854 24.2124 20.1759 24.1009 20.2193 23.9688C20.2628 23.8368 20.2562 23.6933 20.2008 23.5658L19.6957 22.2358C19.6729 22.1764 19.6696 22.1113 19.6862 22.0499C19.7027 21.9885 19.7383 21.9339 19.7878 21.894C19.9208 21.7855 20.0562 21.6758 20.1927 21.5545C20.2393 21.512 20.2985 21.4856 20.3613 21.4793C20.4241 21.473 20.4873 21.4871 20.5415 21.5195L21.7665 22.2533C21.8825 22.3286 22.022 22.359 22.1588 22.3388C22.2956 22.3186 22.4204 22.2492 22.5097 22.1436L22.9145 21.6571C23.0046 21.5513 23.0523 21.416 23.0487 21.2771C23.045 21.1382 22.9902 21.0056 22.8947 20.9046L21.9613 19.829C21.9198 19.7807 21.895 19.7204 21.8906 19.6569C21.8862 19.5934 21.9024 19.5302 21.9368 19.4766C22.0313 19.3265 22.1193 19.1723 22.2005 19.0146C22.2311 18.9586 22.2785 18.9135 22.3361 18.8859C22.3937 18.8583 22.4585 18.8494 22.5213 18.8606L23.9143 19.1325C24.0494 19.165 24.1916 19.1467 24.3141 19.0811C24.4365 19.0154 24.5305 18.9071 24.5782 18.7766L24.794 18.1816C24.8424 18.0515 24.8414 17.908 24.791 17.7786C24.7407 17.6491 24.6446 17.5426 24.521 17.4793L23.2738 16.7863C23.2188 16.7549 23.1753 16.7067 23.1497 16.6487C23.1241 16.5908 23.1177 16.5262 23.1315 16.4643L23.1432 16.3955C23.1723 16.2438 23.198 16.098 23.2248 15.944C23.2337 15.8815 23.262 15.8234 23.3058 15.7779C23.3495 15.7325 23.4066 15.702 23.4687 15.6908L24.8733 15.4645C25.011 15.4477 25.1379 15.3814 25.2302 15.2779C25.3226 15.1744 25.374 15.0408 25.375 14.9021V14.2616V14.2628ZM9.3835 20.3528C8.52044 19.6584 7.82454 18.7788 7.34729 17.7791C6.87004 16.7794 6.62364 15.6853 6.62633 14.5775C6.62902 13.4698 6.88072 12.3768 7.36282 11.3794C7.84492 10.3821 8.54508 9.50588 9.4115 8.81565L12.6922 14.5906L9.3835 20.3528ZM14 21.9826C13.093 21.9836 12.1938 21.8158 11.3482 21.488L14.6557 15.7305H21.2858C20.7375 19.2666 17.6808 21.9826 14 21.9826ZM14.6592 13.4566L11.3808 7.68748C12.2171 7.36809 13.1048 7.20477 14 7.20565C17.6797 7.20565 20.7387 9.92165 21.2858 13.4578H14.6592V13.4566Z" fill="#2D2D2D"/>
</g>
<defs>
<clipPath id="clip0_179_168">
<rect width="28" height="27.6863" fill="white" transform="translate(0 0.144775)"/>
</clipPath>
</defs>
</svg>
