<svg width="20" height="20" viewBox="0 0 20 20" fill="none" xmlns="http://www.w3.org/2000/svg">
<g clip-path="url(#clip0_49_5555)">
<path d="M20 10C20 15.5405 15.5405 20 10 20C4.45946 20 0 15.5405 0 10C0 4.45946 4.45946 0 10 0C15.5405 0 20 4.45946 20 10Z" fill="#55B25D"/>
<path d="M17.2973 7.83783C17.2297 7.56756 17.0946 7.36486 16.8243 7.22972C16.0811 6.89188 15.4054 6.55405 14.7297 6.28378C12.8379 5.6081 11.0135 5.33783 9.05407 5.27026C8.31083 5.27026 7.50002 5.27026 6.75677 5.33783C6.01353 5.4054 5.27029 5.54053 4.59461 5.67567C4.32434 5.74324 3.9865 5.8108 3.71623 5.87837C3.31083 6.01351 3.04056 6.35134 3.10813 6.75675C3.10813 7.16216 3.3784 7.49999 3.7838 7.63513C3.91894 7.7027 4.18921 7.7027 4.32434 7.63513C4.59461 7.56756 4.93245 7.43243 5.20272 7.43243C6.01353 7.29729 6.82434 7.16216 7.63515 7.09459C8.31083 7.02702 9.05407 7.02702 9.72975 7.09459C10.4054 7.16216 11.0811 7.22972 11.7568 7.29729C12.7027 7.43243 13.6487 7.7027 14.5946 8.04053C15.0676 8.17567 15.5406 8.44594 15.946 8.71621C16.6216 9.05405 17.3649 8.58107 17.2973 7.83783C17.2973 7.97297 17.2973 7.9054 17.2973 7.83783Z" fill="#010202"/>
<path d="M8.24327 10.2703C7.09462 10.2703 5.94598 10.4055 4.79733 10.7433C4.66219 10.8109 4.39192 10.8109 4.25679 10.7433C3.98652 10.6757 3.78381 10.3379 3.78381 10.0001C3.78381 9.66222 3.98652 9.39195 4.32435 9.32438C4.66219 9.25682 5.00003 9.18925 5.2703 9.05411C6.08111 8.91898 6.89192 8.78384 7.7703 8.71628C9.52706 8.64871 11.2838 8.85141 13.0406 9.39195C13.9189 9.66222 14.7298 10.0676 15.473 10.473C15.5406 10.473 15.5406 10.5406 15.6081 10.5406C16.0135 10.8109 16.0135 11.2838 15.8784 11.6217C15.6081 12.0271 15.1352 12.0947 14.7298 11.892C14.5271 11.7568 14.3244 11.6217 14.0541 11.4865C13.1081 10.946 12.0271 10.6757 10.946 10.4055C10.0676 10.4055 9.18922 10.2703 8.24327 10.2703Z" fill="#010202"/>
<path d="M8.446 11.9595C9.72978 11.9595 11.0136 12.1622 12.2974 12.5676C12.973 12.7703 13.6487 13.1081 14.2568 13.5135C14.3244 13.5811 14.3919 13.5811 14.3919 13.6487C14.6622 13.7838 14.7298 14.1216 14.5271 14.3919C14.3244 14.6622 14.0541 14.7297 13.7838 14.6622C13.7163 14.6622 13.6487 14.5946 13.6487 14.527C12.5676 13.8514 11.419 13.5135 10.2703 13.3108C9.45951 13.2433 8.71627 13.1757 7.97303 13.2433C6.95951 13.3108 6.01357 13.3784 5.06762 13.6487C4.93249 13.6487 4.86492 13.7162 4.79735 13.7162C4.52708 13.7162 4.25681 13.5135 4.18924 13.2433C4.12168 12.9054 4.32438 12.6351 4.59465 12.5676C4.66222 12.5676 4.72978 12.5 4.72978 12.5C5.54059 12.2973 6.35141 12.0946 7.16222 12.027C7.56762 12.027 7.97303 12.027 8.446 11.9595Z" fill="#010202"/>
</g>
<defs>
<clipPath id="clip0_49_5555">
<rect width="20" height="20" fill="white"/>
</clipPath>
</defs>
</svg>
